# Blender v2.83.5 OBJ File: 'crosshair.blend'
# www.blender.org
o Circle_Plane
v 0.000000 0.000000 -0.949273
v 0.185194 0.000000 -0.931034
v 0.363271 0.000000 -0.877014
v 0.527388 0.000000 -0.789292
v 0.671238 0.000000 -0.671238
v 0.789292 0.000000 -0.527388
v 0.877015 0.000000 -0.363271
v 0.931034 0.000000 -0.185194
v 0.949274 0.000000 0.000000
v 0.931034 0.000000 0.185194
v 0.877015 0.000000 0.363272
v 0.789292 0.000000 0.527389
v 0.671238 0.000000 0.671238
v 0.527388 0.000000 0.789293
v 0.363271 0.000000 0.877015
v 0.185194 0.000000 0.931034
v -0.000000 0.000000 0.949274
v -0.185194 0.000000 0.931034
v -0.363271 0.000000 0.877015
v -0.527388 0.000000 0.789292
v -0.671238 0.000000 0.671238
v -0.789292 0.000000 0.527388
v -0.877014 0.000000 0.363271
v -0.931033 0.000000 0.185194
v -0.949273 0.000000 0.000000
v -0.931033 0.000000 -0.185194
v -0.877014 0.000000 -0.363271
v -0.789292 0.000000 -0.527388
v -0.671237 0.000000 -0.671237
v -0.527388 0.000000 -0.789292
v -0.363271 0.000000 -0.877014
v -0.185194 0.000000 -0.931033
v 0.093045 0.000000 -0.944699
v 0.275559 0.000000 -0.908395
v 0.447483 0.000000 -0.837181
v 0.602211 0.000000 -0.733795
v 0.733796 0.000000 -0.602210
v 0.837182 0.000000 -0.447483
v 0.908395 0.000000 -0.275558
v 0.944699 0.000000 -0.093044
v 0.944699 0.000000 0.093045
v 0.908395 0.000000 0.275559
v 0.837181 0.000000 0.447483
v 0.733796 0.000000 0.602211
v 0.602211 0.000000 0.733796
v 0.447483 0.000000 0.837182
v 0.275558 0.000000 0.908395
v 0.093045 0.000000 0.944699
v -0.093045 0.000000 0.944699
v -0.275559 0.000000 0.908395
v -0.447483 0.000000 0.837182
v -0.602211 0.000000 0.733796
v -0.733796 0.000000 0.602211
v -0.837181 0.000000 0.447483
v -0.908395 0.000000 0.275559
v -0.944699 0.000000 0.093045
v -0.944699 0.000000 -0.093045
v -0.908394 0.000000 -0.275558
v -0.837181 0.000000 -0.447483
v -0.733795 0.000000 -0.602210
v -0.602210 0.000000 -0.733795
v -0.447482 0.000000 -0.837181
v -0.275558 0.000000 -0.908394
v -0.093045 0.000000 -0.944699
v -0.942489 0.000000 0.000000
v 0.937947 0.000000 0.092380
v 0.000000 0.000000 -0.987231
v 0.192599 0.000000 -0.968262
v 0.377797 0.000000 -0.912083
v 0.548477 0.000000 -0.820853
v 0.698078 0.000000 -0.698078
v 0.820853 0.000000 -0.548476
v 0.912083 0.000000 -0.377797
v 0.968262 0.000000 -0.192599
v 0.987231 0.000000 0.000000
v 0.968262 0.000000 0.192600
v 0.912083 0.000000 0.377797
v 0.820853 0.000000 0.548477
v 0.698078 0.000000 0.698078
v 0.548476 0.000000 0.820853
v 0.377797 0.000000 0.912083
v 0.192599 0.000000 0.968262
v -0.000000 0.000000 0.987231
v -0.192599 0.000000 0.968262
v -0.377797 0.000000 0.912083
v -0.548476 0.000000 0.820853
v -0.698078 0.000000 0.698078
v -0.820853 0.000000 0.548476
v -0.912083 0.000000 0.377797
v -0.968262 0.000000 0.192599
v -0.987231 0.000000 0.000000
v -0.968262 0.000000 -0.192599
v -0.912082 0.000000 -0.377797
v -0.820852 0.000000 -0.548476
v -0.698077 0.000000 -0.698077
v -0.548476 0.000000 -0.820852
v -0.377797 0.000000 -0.912082
v -0.192599 0.000000 -0.968261
v 0.096765 0.000000 -0.982474
v 0.286577 0.000000 -0.944718
v 0.465376 0.000000 -0.870657
v 0.626291 0.000000 -0.763137
v 0.763137 0.000000 -0.626290
v 0.870657 0.000000 -0.465376
v 0.944718 0.000000 -0.286577
v 0.982474 0.000000 -0.096765
v 0.982474 0.000000 0.096766
v 0.944718 0.000000 0.286577
v 0.870657 0.000000 0.465376
v 0.763137 0.000000 0.626291
v 0.626291 0.000000 0.763138
v 0.465376 0.000000 0.870657
v 0.286577 0.000000 0.944718
v 0.096765 0.000000 0.982474
v -0.096765 0.000000 0.982474
v -0.286577 0.000000 0.944718
v -0.465376 0.000000 0.870657
v -0.626291 0.000000 0.763137
v -0.763137 0.000000 0.626291
v -0.870657 0.000000 0.465376
v -0.944718 0.000000 0.286577
v -0.982473 0.000000 0.096765
v -0.982473 0.000000 -0.096765
v -0.944717 0.000000 -0.286577
v -0.870656 0.000000 -0.465376
v -0.763137 0.000000 -0.626290
v -0.626290 0.000000 -0.763137
v -0.465375 0.000000 -0.870656
v -0.286577 0.000000 -0.944717
v -0.096765 0.000000 -0.982473
v -0.940575 0.000000 -0.038924
v 0.931037 0.000000 0.138979
v 0.429286 0.000000 -0.845789
v 0.442566 0.000000 -0.839507
v 0.344318 0.000000 -0.883795
v 0.358150 0.000000 -0.878847
v 0.190470 0.000000 -0.929712
v 0.204721 0.000000 -0.926142
v 0.165282 0.000000 -0.933987
v -0.020106 0.000000 -0.948285
v -0.165281 0.000000 -0.933986
v -0.256031 0.000000 -0.913286
v -0.270282 0.000000 -0.909716
v -0.368188 0.000000 -0.874688
v -0.381468 0.000000 -0.868406
v -0.280679 0.000000 -0.906562
v -0.294512 0.000000 -0.901613
v 0.667208 0.000000 -0.674890
v 0.656322 0.000000 -0.684756
v 0.539188 0.000000 -0.780540
v 0.452148 0.000000 -0.834385
v 0.464750 0.000000 -0.826833
v -0.522722 0.000000 -0.792088
v -0.510121 0.000000 -0.799640
v -0.586042 0.000000 -0.745787
v -0.656321 0.000000 -0.684756
v -0.667207 0.000000 -0.674890
v 0.868407 0.000000 -0.381468
v 0.874689 0.000000 -0.368188
v 0.901614 0.000000 -0.294512
v 0.799641 0.000000 -0.510121
v 0.792089 0.000000 -0.522722
v 0.777300 0.000000 -0.543556
v 0.720278 0.000000 -0.617126
v 0.730143 0.000000 -0.606241
v -0.684756 0.000000 -0.656321
v -0.826833 0.000000 -0.464749
v -0.786051 0.000000 -0.531757
v -0.845788 0.000000 -0.429285
v -0.839507 0.000000 -0.442566
v 0.931832 0.000000 -0.179813
v 0.948285 0.000000 -0.020106
v 0.949007 0.000000 -0.005432
v 0.909717 0.000000 -0.270282
v 0.913287 0.000000 -0.256031
v -0.926141 0.000000 -0.204721
v -0.929712 0.000000 -0.190470
v -0.941746 0.000000 -0.112957
v -0.946661 0.000000 -0.053128
v 0.947650 0.000000 0.033022
v 0.947383 0.000000 0.038455
v 0.946662 0.000000 0.053128
v 0.938837 0.000000 0.132578
v 0.929712 0.000000 0.190471
v 0.926142 0.000000 0.204721
v 0.883796 0.000000 0.344318
v 0.878847 0.000000 0.358150
v -0.913287 0.000000 0.256032
v -0.909716 0.000000 0.270282
v -0.949006 0.000000 0.005433
v -0.948285 0.000000 0.020106
v -0.933986 0.000000 0.165282
v -0.931831 0.000000 0.179814
v 0.845789 0.000000 0.429286
v 0.839507 0.000000 0.442566
v 0.834385 0.000000 0.452149
v 0.826833 0.000000 0.464750
v 0.777300 0.000000 0.543557
v 0.684756 0.000000 0.656322
v 0.674890 0.000000 0.667208
v -0.730143 0.000000 0.606241
v -0.720278 0.000000 0.617127
v -0.777300 0.000000 0.543557
v -0.874689 0.000000 0.368188
v -0.868407 0.000000 0.381469
v -0.799641 0.000000 0.510121
v 0.667207 0.000000 0.674891
v 0.656322 0.000000 0.684756
v 0.522723 0.000000 0.792089
v 0.510121 0.000000 0.799641
v 0.381469 0.000000 0.868407
v 0.368188 0.000000 0.874689
v -0.429286 0.000000 0.845789
v -0.452148 0.000000 0.834385
v -0.464750 0.000000 0.826833
v 0.270282 0.000000 0.909717
v 0.256032 0.000000 0.913287
v 0.294512 0.000000 0.901614
v 0.179814 0.000000 0.931832
v 0.020106 0.000000 0.948285
v 0.005433 0.000000 0.949007
v -0.072939 0.000000 0.945688
v -0.165282 0.000000 0.933987
v -0.344318 0.000000 0.883796
v -0.358150 0.000000 0.878847
v -0.190470 0.000000 0.929712
v -0.204721 0.000000 0.926142
vt 0.602358 0.963071
vt 0.637779 0.954197
vt 0.643289 0.972359
vt 0.510055 0.025858
vt 0.502718 0.025496
vt 0.500000 0.006384
vt 0.008763 0.548383
vt 0.006384 0.500000
vt 0.026669 0.526564
vt 0.025363 0.500000
vt 0.027650 0.546522
vt 0.029127 0.556479
vt 0.034483 0.592596
vt 0.015869 0.596300
vt 0.035144 0.595235
vt 0.036929 0.602362
vt 0.045802 0.637779
vt 0.027641 0.643288
vt 0.064672 0.732688
vt 0.043959 0.688898
vt 0.077106 0.714643
vt 0.061492 0.681636
vt 0.080246 0.721282
vt 0.081409 0.723741
vt 0.118432 0.813145
vt 0.089574 0.774238
vt 0.106974 0.765878
vt 0.086584 0.732375
vt 0.186855 0.881568
vt 0.150961 0.849039
vt 0.171840 0.842378
vt 0.157622 0.828160
vt 0.166396 0.837444
vt 0.164381 0.835619
vt 0.267312 0.935328
vt 0.225762 0.910426
vt 0.244939 0.899820
vt 0.206979 0.872894
vt 0.356712 0.972358
vt 0.311102 0.956041
vt 0.352744 0.950807
vt 0.309266 0.934203
vt 0.359660 0.953282
vt 0.451617 0.991237
vt 0.403701 0.984131
vt 0.417357 0.966993
vt 0.371984 0.956643
vt 0.362221 0.954197
vt 0.548383 0.991237
vt 0.500000 0.993616
vt 0.546522 0.972350
vt 0.489945 0.974142
vt 0.500000 0.974637
vt 0.596300 0.984131
vt 0.582641 0.966993
vt 0.592596 0.965517
vt 0.732688 0.935328
vt 0.688899 0.956041
vt 0.714642 0.922894
vt 0.672159 0.941897
vt 0.723742 0.918591
vt 0.726074 0.917192
vt 0.813145 0.881568
vt 0.774238 0.910426
vt 0.769595 0.890269
vt 0.732375 0.913417
vt 0.763694 0.894646
vt 0.881569 0.813145
vt 0.849039 0.849039
vt 0.860139 0.808563
vt 0.828161 0.842378
vt 0.865072 0.803120
vt 0.866898 0.801105
vt 0.935329 0.732688
vt 0.910426 0.774238
vt 0.899820 0.755060
vt 0.888651 0.771777
vt 0.894646 0.763694
vt 0.972359 0.643288
vt 0.956041 0.688898
vt 0.950806 0.647256
vt 0.934204 0.690732
vt 0.954198 0.637779
vt 0.954859 0.635141
vt 0.991237 0.548382
vt 0.984131 0.596299
vt 0.965916 0.589907
vt 0.956644 0.628015
vt 0.965518 0.592597
vt 0.974637 0.500000
vt 0.993616 0.500000
vt 0.974510 0.502716
vt 0.974152 0.510053
vt 0.972349 0.546522
vt 0.896045 0.761361
vt 0.721283 0.919754
vt 0.595234 0.964856
vt 0.364859 0.954858
vt 0.198895 0.866897
vt 0.938507 0.681635
vt 0.918591 0.723742
vt 0.937345 0.684094
vt 0.835619 0.835618
vt 0.801106 0.866897
vt 0.833604 0.837445
vt 0.105354 0.763694
vt 0.133103 0.801106
vt 0.236306 0.894645
vt 0.238640 0.896045
vt 0.276258 0.918590
vt 0.315906 0.937345
vt 0.318364 0.938506
vt 0.681635 0.938508
vt 0.407403 0.965517
vt 0.453478 0.972349
vt 0.679074 0.939424
vt 0.991237 0.451617
vt 0.973330 0.473436
vt 0.973822 0.483489
vt 0.973692 0.480772
vt 0.972350 0.453477
vt 0.969419 0.433711
vt 0.965517 0.407403
vt 0.984131 0.403700
vt 0.964855 0.404765
vt 0.963071 0.397639
vt 0.954197 0.362221
vt 0.972359 0.356711
vt 0.935328 0.267312
vt 0.956041 0.311101
vt 0.922894 0.285356
vt 0.941898 0.327841
vt 0.919754 0.278717
vt 0.918590 0.276259
vt 0.881568 0.186855
vt 0.910426 0.225762
vt 0.888649 0.228221
vt 0.913417 0.267625
vt 0.917193 0.273926
vt 0.813145 0.118431
vt 0.849039 0.150961
vt 0.828161 0.157622
vt 0.842376 0.171837
vt 0.833604 0.162554
vt 0.835619 0.164381
vt 0.732688 0.064671
vt 0.774238 0.089573
vt 0.755059 0.100178
vt 0.801104 0.133102
vt 0.643288 0.027641
vt 0.688899 0.043958
vt 0.647256 0.049193
vt 0.690734 0.065796
vt 0.681636 0.061493
vt 0.548383 0.008763
vt 0.596300 0.015869
vt 0.589908 0.034084
vt 0.628015 0.043356
vt 0.635142 0.045142
vt 0.637779 0.045802
vt 0.451617 0.008763
vt 0.463530 0.027156
vt 0.453478 0.027650
vt 0.356711 0.027641
vt 0.403700 0.015869
vt 0.397637 0.036930
vt 0.417359 0.033007
vt 0.267312 0.064672
vt 0.311101 0.043959
vt 0.285356 0.077106
vt 0.327839 0.058103
vt 0.276258 0.081409
vt 0.186855 0.118431
vt 0.225762 0.089573
vt 0.236306 0.105354
vt 0.267625 0.086583
vt 0.118431 0.186855
vt 0.150961 0.150961
vt 0.139861 0.191437
vt 0.164381 0.164381
vt 0.134928 0.196879
vt 0.133102 0.198894
vt 0.064672 0.267312
vt 0.089574 0.225762
vt 0.100181 0.244935
vt 0.111350 0.228222
vt 0.105353 0.236307
vt 0.027641 0.356711
vt 0.043959 0.311101
vt 0.045802 0.362220
vt 0.065798 0.309264
vt 0.061493 0.318364
vt 0.008763 0.451617
vt 0.015869 0.403700
vt 0.033007 0.417359
vt 0.043356 0.371984
vt 0.025490 0.497284
vt 0.025848 0.489947
vt 0.027651 0.453477
vt 0.034483 0.407403
vt 0.045142 0.364858
vt 0.273925 0.082807
vt 0.763693 0.105354
vt 0.034085 0.410093
vt 0.939423 0.320924
vt 0.062655 0.315906
vt 0.938508 0.318364
vt 0.894646 0.236306
vt 0.081409 0.276258
vt 0.866898 0.198894
vt 0.837446 0.166396
vt 0.198894 0.133103
vt 0.761362 0.103956
vt 0.723741 0.081409
vt 0.318364 0.061493
vt 0.684093 0.062655
vt 0.320925 0.060577
vt 0.362221 0.045802
vt 0.407403 0.034483
vt 0.404764 0.035144
vt 0.592596 0.034483
vt 0.546521 0.027650
vt 0.500000 0.025363
vn -0.0000 1.0000 0.0000
s off
f 138/1/1 34/2/1 100/3/1
f 220/4/1 221/5/1 83/6/1
f 123/7/1 91/8/1 179/9/1
f 91/8/1 25/10/1 179/9/1
f 179/9/1 57/11/1 123/7/1
f 57/11/1 178/12/1 123/7/1
f 178/12/1 26/13/1 92/14/1
f 123/7/1 178/12/1 92/14/1
f 26/13/1 177/15/1 92/14/1
f 177/15/1 176/16/1 92/14/1
f 176/16/1 58/17/1 124/18/1
f 124/18/1 92/14/1 176/16/1
f 125/19/1 93/20/1 169/21/1
f 93/20/1 124/18/1 27/22/1
f 125/19/1 170/23/1 59/24/1
f 126/25/1 94/26/1 168/27/1
f 94/26/1 125/19/1 167/28/1
f 167/28/1 125/19/1 59/24/1
f 127/29/1 95/30/1 156/31/1
f 95/30/1 126/25/1 166/32/1
f 157/33/1 95/30/1 29/34/1
f 128/35/1 96/36/1 154/37/1
f 96/36/1 127/29/1 155/38/1
f 129/39/1 97/40/1 147/41/1
f 97/40/1 128/35/1 145/42/1
f 129/39/1 147/41/1 146/43/1
f 130/44/1 98/45/1 141/46/1
f 98/45/1 129/39/1 142/47/1
f 63/48/1 129/39/1 146/43/1
f 99/49/1 67/50/1 33/51/1
f 67/50/1 130/44/1 140/52/1
f 33/51/1 67/50/1 1/53/1
f 100/3/1 68/54/1 138/1/1
f 68/54/1 99/49/1 139/55/1
f 2/56/1 68/54/1 139/55/1
f 101/57/1 69/58/1 133/59/1
f 69/58/1 100/3/1 135/60/1
f 101/57/1 35/61/1 151/62/1
f 102/63/1 70/64/1 150/65/1
f 70/64/1 101/57/1 152/66/1
f 4/67/1 70/64/1 152/66/1
f 103/68/1 71/69/1 164/70/1
f 71/69/1 102/63/1 149/71/1
f 103/68/1 165/72/1 37/73/1
f 104/74/1 72/75/1 161/76/1
f 72/75/1 103/68/1 163/77/1
f 6/78/1 72/75/1 163/77/1
f 105/79/1 73/80/1 160/81/1
f 73/80/1 104/74/1 158/82/1
f 105/79/1 39/83/1 174/84/1
f 106/85/1 74/86/1 171/87/1
f 74/86/1 105/79/1 175/88/1
f 8/89/1 74/86/1 175/88/1
f 9/90/1 75/91/1 173/92/1
f 75/91/1 106/85/1 172/93/1
f 173/92/1 75/91/1 172/93/1
f 40/94/1 172/93/1 106/85/1
f 74/86/1 8/89/1 171/87/1
f 39/83/1 105/79/1 160/81/1
f 72/75/1 6/78/1 162/95/1
f 165/72/1 103/68/1 164/70/1
f 70/64/1 4/67/1 150/65/1
f 35/61/1 101/57/1 134/96/1
f 68/54/1 2/56/1 137/97/1
f 129/39/1 63/48/1 143/98/1
f 127/29/1 156/31/1 61/99/1
f 95/30/1 157/33/1 156/31/1
f 170/23/1 125/19/1 169/21/1
f 171/87/1 40/94/1 106/85/1
f 174/84/1 175/88/1 105/79/1
f 7/100/1 160/81/1 73/80/1
f 38/101/1 158/82/1 104/74/1
f 158/82/1 159/102/1 73/80/1
f 162/95/1 161/76/1 72/75/1
f 37/73/1 163/77/1 103/68/1
f 5/103/1 164/70/1 71/69/1
f 36/104/1 149/71/1 102/63/1
f 149/71/1 148/105/1 71/69/1
f 124/18/1 58/17/1 27/22/1
f 27/22/1 169/21/1 93/20/1
f 167/28/1 28/106/1 94/26/1
f 28/106/1 168/27/1 94/26/1
f 168/27/1 60/107/1 126/25/1
f 7/100/1 73/80/1 159/102/1
f 126/25/1 60/107/1 166/32/1
f 166/32/1 29/34/1 95/30/1
f 161/76/1 38/101/1 104/74/1
f 127/29/1 61/99/1 155/38/1
f 96/36/1 155/38/1 30/108/1
f 5/103/1 71/69/1 148/105/1
f 96/36/1 30/108/1 153/109/1
f 154/37/1 96/36/1 153/109/1
f 62/110/1 145/42/1 128/35/1
f 145/42/1 144/111/1 97/40/1
f 154/37/1 62/110/1 128/35/1
f 150/65/1 36/104/1 102/63/1
f 151/62/1 152/66/1 101/57/1
f 144/111/1 31/112/1 97/40/1
f 31/112/1 147/41/1 97/40/1
f 129/39/1 143/98/1 142/47/1
f 134/96/1 101/57/1 133/59/1
f 133/59/1 69/58/1 3/113/1
f 32/114/1 98/45/1 142/47/1
f 32/114/1 141/46/1 98/45/1
f 141/46/1 64/115/1 130/44/1
f 3/113/1 69/58/1 136/116/1
f 136/116/1 69/58/1 135/60/1
f 130/44/1 64/115/1 140/52/1
f 140/52/1 1/53/1 67/50/1
f 33/51/1 139/55/1 99/49/1
f 34/2/1 135/60/1 100/3/1
f 137/97/1 138/1/1 68/54/1
f 107/117/1 75/91/1 182/118/1
f 75/91/1 9/90/1 180/119/1
f 181/120/1 75/91/1 180/119/1
f 181/120/1 182/118/1 75/91/1
f 182/118/1 41/121/1 107/117/1
f 41/121/1 183/122/1 107/117/1
f 183/122/1 10/123/1 76/124/1
f 184/125/1 185/126/1 76/124/1
f 185/126/1 42/127/1 108/128/1
f 10/123/1 184/125/1 76/124/1
f 185/126/1 108/128/1 76/124/1
f 76/124/1 107/117/1 183/122/1
f 109/129/1 77/130/1 194/131/1
f 77/130/1 108/128/1 186/132/1
f 109/129/1 195/133/1 43/134/1
f 110/135/1 78/136/1 198/137/1
f 78/136/1 109/129/1 197/138/1
f 196/139/1 109/129/1 43/134/1
f 111/140/1 79/141/1 208/142/1
f 79/141/1 110/135/1 199/143/1
f 207/144/1 79/141/1 13/145/1
f 112/146/1 80/147/1 210/148/1
f 80/147/1 111/140/1 45/149/1
f 113/150/1 81/151/1 218/152/1
f 81/151/1 112/146/1 211/153/1
f 218/152/1 81/151/1 15/154/1
f 114/155/1 82/156/1 219/157/1
f 82/156/1 113/150/1 217/158/1
f 216/159/1 113/150/1 47/160/1
f 115/161/1 83/6/1 222/162/1
f 83/6/1 114/155/1 220/4/1
f 115/161/1 222/162/1 49/163/1
f 116/164/1 84/165/1 227/166/1
f 84/165/1 115/161/1 223/167/1
f 223/167/1 115/161/1 49/163/1
f 117/168/1 85/169/1 213/170/1
f 85/169/1 116/164/1 224/171/1
f 117/168/1 213/170/1 51/172/1
f 118/173/1 86/174/1 20/175/1
f 86/174/1 117/168/1 215/176/1
f 119/177/1 87/178/1 202/179/1
f 87/178/1 118/173/1 21/180/1
f 119/177/1 201/181/1 53/182/1
f 120/183/1 88/184/1 206/185/1
f 88/184/1 119/177/1 203/186/1
f 22/187/1 88/184/1 203/186/1
f 121/188/1 89/189/1 55/190/1
f 89/189/1 120/183/1 205/191/1
f 55/190/1 89/189/1 23/192/1
f 122/193/1 90/194/1 192/195/1
f 90/194/1 121/188/1 188/196/1
f 25/10/1 91/8/1 190/197/1
f 91/8/1 122/193/1 191/198/1
f 190/197/1 91/8/1 191/198/1
f 56/199/1 191/198/1 122/193/1
f 90/194/1 188/196/1 24/200/1
f 188/196/1 121/188/1 189/201/1
f 88/184/1 22/187/1 206/185/1
f 201/181/1 119/177/1 202/179/1
f 86/174/1 215/176/1 20/175/1
f 215/176/1 117/168/1 214/202/1
f 113/150/1 216/159/1 217/158/1
f 80/147/1 45/149/1 14/203/1
f 79/141/1 207/144/1 208/142/1
f 109/129/1 196/139/1 197/138/1
f 195/133/1 109/129/1 194/131/1
f 24/200/1 193/204/1 90/194/1
f 193/204/1 192/195/1 90/194/1
f 192/195/1 56/199/1 122/193/1
f 55/190/1 189/201/1 121/188/1
f 108/128/1 42/127/1 186/132/1
f 186/132/1 187/205/1 77/130/1
f 23/192/1 89/189/1 204/206/1
f 187/205/1 11/207/1 77/130/1
f 11/207/1 194/131/1 77/130/1
f 78/136/1 197/138/1 12/208/1
f 204/206/1 89/189/1 205/191/1
f 54/209/1 205/191/1 120/183/1
f 206/185/1 54/209/1 120/183/1
f 53/182/1 203/186/1 119/177/1
f 78/136/1 12/208/1 198/137/1
f 198/137/1 44/210/1 110/135/1
f 110/135/1 44/210/1 199/143/1
f 199/143/1 200/211/1 79/141/1
f 202/179/1 87/178/1 21/180/1
f 200/211/1 13/145/1 79/141/1
f 208/142/1 45/149/1 111/140/1
f 52/212/1 21/180/1 118/173/1
f 20/175/1 52/212/1 118/173/1
f 51/172/1 214/202/1 117/168/1
f 80/147/1 14/203/1 209/213/1
f 209/213/1 210/148/1 80/147/1
f 210/148/1 46/214/1 112/146/1
f 213/170/1 85/169/1 19/215/1
f 211/153/1 212/216/1 81/151/1
f 212/216/1 15/154/1 81/151/1
f 112/146/1 46/214/1 211/153/1
f 19/215/1 85/169/1 225/217/1
f 225/217/1 85/169/1 224/171/1
f 113/150/1 218/152/1 47/160/1
f 50/218/1 224/171/1 116/164/1
f 18/219/1 226/220/1 84/165/1
f 226/220/1 227/166/1 84/165/1
f 227/166/1 50/218/1 116/164/1
f 16/221/1 82/156/1 217/158/1
f 16/221/1 219/157/1 82/156/1
f 219/157/1 48/222/1 114/155/1
f 223/167/1 18/219/1 84/165/1
f 114/155/1 48/222/1 220/4/1
f 222/162/1 83/6/1 17/223/1
f 17/223/1 83/6/1 221/5/1
l 131 65
l 132 66
l 186 42
l 187 11
l 177 26
l 157 29
l 156 61
l 147 31
l 214 51
l 215 20
l 189 55
l 205 54
l 204 23
l 180 9
l 182 41
l 172 40
l 206 54
l 158 38
l 193 24
l 192 56
l 211 46
l 212 15
l 216 47
l 179 57
l 183 41
l 206 54
l 191 56
l 145 62
l 182 41
l 145 62
l 144 31
l 183 41
l 174 39
l 199 44
l 191 56
l 190 25
l 149 36
l 153 30
l 154 62
l 135 34
l 134 35
l 179 57
l 208 45
l 156 61
l 140 64
l 201 53
l 186 42
l 220 48
l 224 50
l 205 54
l 138 34
l 194 11
l 195 43
l 143 63
l 140 64
o Cross_2_Plane.004
v -0.018152 -0.015068 -0.381322
v -0.018150 0.013814 0.381369
v 0.018150 -0.013814 -0.381369
v 0.018152 0.015068 0.381322
vt 1.000000 0.000000
vt 0.000000 1.000000
vt 0.000000 0.000000
vt 1.000000 1.000000
vn -0.0345 0.9987 -0.0378
s off
f 229/224/2 230/225/2 228/226/2
f 229/224/2 231/227/2 230/225/2
o Cross_1_Plane.002
v -0.381619 0.000000 0.018162
v 0.381619 0.000000 0.018162
v -0.381619 0.000000 -0.018162
v 0.381619 0.000000 -0.018162
vt 1.000000 0.000000
vt 0.000000 1.000000
vt 0.000000 0.000000
vt 1.000000 1.000000
vn 0.0000 1.0000 0.0000
s off
f 233/228/3 234/229/3 232/230/3
f 233/228/3 235/231/3 234/229/3
