<?xml version="1.0" encoding="UTF-8" standalone="no"?>
<svg
   xmlns:dc="http://purl.org/dc/elements/1.1/"
   xmlns:cc="http://creativecommons.org/ns#"
   xmlns:rdf="http://www.w3.org/1999/02/22-rdf-syntax-ns#"
   xmlns:svg="http://www.w3.org/2000/svg"
   xmlns="http://www.w3.org/2000/svg"
   xmlns:sodipodi="http://sodipodi.sourceforge.net/DTD/sodipodi-0.dtd"
   xmlns:inkscape="http://www.inkscape.org/namespaces/inkscape"
   width="512"
   height="512"
   viewBox="0 0 135.46666 135.46666"
   version="1.1"
   id="svg8"
   inkscape:version="1.0.2 (e86c870879, 2021-01-15)"
   sodipodi:docname="font.svg">
  <defs
     id="defs2" />
  <sodipodi:namedview
     id="base"
     pagecolor="#ffffff"
     bordercolor="#666666"
     borderopacity="1.0"
     inkscape:pageopacity="0.0"
     inkscape:pageshadow="2"
     inkscape:zoom="1.4"
     inkscape:cx="231.80243"
     inkscape:cy="116.28818"
     inkscape:document-units="mm"
     inkscape:current-layer="layer1"
     inkscape:document-rotation="0"
     showgrid="false"
     units="px"
     inkscape:pagecheckerboard="true"
     borderlayer="false"
     showborder="true"
     inkscape:window-width="1916"
     inkscape:window-height="1058"
     inkscape:window-x="0"
     inkscape:window-y="20"
     inkscape:window-maximized="1" />
  <metadata
     id="metadata5">
    <rdf:RDF>
      <cc:Work
         rdf:about="">
        <dc:format>image/svg+xml</dc:format>
        <dc:type
           rdf:resource="http://purl.org/dc/dcmitype/StillImage" />
        <dc:title></dc:title>
      </cc:Work>
    </rdf:RDF>
  </metadata>
  <g
     inkscape:label="Layer 1"
     inkscape:groupmode="layer"
     id="layer1">
    <g
       aria-label=" !&quot;#$%&amp;'()*+,-./0123456789:;&lt;=&gt;?@ABCDEFGHIJKLMNOPQRSTUVWXYZ[\]^_`abcdefghijklmnopqrstuvwxyz{|}~"
       transform="translate(-10.806641,-22.167317)"
       id="text832"
       style="font-size:10.5833px;line-height:1.25;font-family:FreeMono;-inkscape-font-specification:FreeMono;letter-spacing:0px;word-spacing:0px;white-space:pre;inline-size:135.921;stroke-width:0.264583">
      <path
         d="m 20.73376,23.278564 -0.1905,3.450155 q -0.02117,0.296333 -0.222249,0.296333 -0.1905,0 -0.211666,-0.296333 l -0.1905,-3.450155 q 0,-0.02117 -0.01058,-0.08467 0,-0.0635 0,-0.08467 0,-0.179916 0.116416,-0.296333 0.127,-0.116416 0.306916,-0.116416 0.169333,0 0.285749,0.116416 0.127,0.116417 0.127,0.296333 0,0.01058 0,0.03175 0,0.02117 -0.01058,0.0635 0,0.04233 0,0.07408 z m -0.476249,5.058817 h 0.137583 q 0.243416,0 0.402165,0.158749 0.169333,0.148167 0.169333,0.370416 0,0.222249 -0.169333,0.370415 -0.158749,0.15875 -0.402165,0.15875 h -0.137583 q -0.232833,0 -0.402165,-0.15875 -0.15875,-0.148166 -0.15875,-0.370415 0,-0.222249 0.15875,-0.370416 0.169332,-0.158749 0.402165,-0.158749 z"
         style="stroke-width:0.264583"
         id="path834" />
      <path
         d="m 25.05173,22.844648 h 1.354662 l -0.359832,2.677575 q -0.04233,0.380999 -0.317499,0.380999 -0.275166,0 -0.317499,-0.380999 z m 1.904994,0 h 1.354662 l -0.359832,2.677575 q -0.04233,0.380999 -0.317499,0.380999 -0.275166,0 -0.317499,-0.380999 z"
         style="stroke-width:0.264583"
         id="path836" />
      <path
         d="m 33.25377,29.61796 0.169333,-2.381242 h -0.96308 l -0.15875,2.381242 q -0.03175,0.275166 -0.222249,0.275166 -0.08467,0 -0.148166,-0.0635 -0.0635,-0.0635 -0.0635,-0.158749 0,-0.05292 0,-0.08467 l 0.169333,-2.349492 h -0.920747 q -0.285749,0 -0.285749,-0.22225 0,-0.211666 0.285749,-0.211666 h 0.941913 l 0.09525,-1.333495 H 31.32761 q -0.285749,0 -0.285749,-0.22225 0,-0.211666 0.285749,-0.211666 h 0.857247 l 0.169333,-2.381242 q 0.02117,-0.264583 0.222249,-0.264583 0.201083,0 0.201083,0.264583 0,0.01058 0,0.03175 l -0.15875,2.349492 h 0.963081 l 0.169332,-2.381242 q 0.01058,-0.264583 0.211666,-0.264583 0.105833,0 0.15875,0.07408 0.05292,0.07408 0.05292,0.190499 0,0.01058 0,0.02117 0,0 0,0.01058 l -0.169332,2.349492 h 0.941913 q 0.285749,0 0.285749,0.211666 0,0.22225 -0.285749,0.22225 h -0.96308 l -0.09525,1.333495 h 0.846664 q 0.285749,0 0.285749,0.211666 0,0.22225 -0.285749,0.22225 h -0.878414 l -0.169332,2.381242 q -0.01058,0.275166 -0.22225,0.275166 -0.07408,0 -0.148166,-0.0635 -0.0635,-0.0635 -0.0635,-0.126999 0,-0.04233 0,-0.08467 z m 0.296333,-4.148653 h -0.963081 l -0.09525,1.333495 h 0.96308 z"
         style="stroke-width:0.264583"
         id="path838" />
      <path
         d="m 40.926647,27.109718 q 0,-0.380999 -0.243416,-0.613831 -0.243416,-0.232833 -0.613831,-0.306916 -0.359833,-0.08467 -0.783165,-0.179916 -0.423332,-0.105833 -0.793747,-0.211666 -0.359832,-0.116416 -0.603248,-0.402165 -0.243416,-0.296333 -0.243416,-0.761998 0,-0.571498 0.423332,-0.99483 0.433915,-0.423332 1.100663,-0.497415 v -0.550332 q 0,-0.285749 0.222249,-0.285749 0.211666,0 0.211666,0.285749 v 0.550332 q 0.349249,0.03175 0.582082,0.126999 0.232833,0.09525 0.518582,0.317499 0.02117,-0.306915 0.222249,-0.306915 0.211666,0 0.211666,0.285749 v 0.634998 q 0,0.285749 -0.211666,0.285749 -0.190499,0 -0.222249,-0.232833 -0.04233,-0.285749 -0.433916,-0.497415 -0.380998,-0.211666 -0.86783,-0.211666 -0.550332,0 -0.941914,0.328082 -0.380999,0.317499 -0.380999,0.772581 0,0.349249 0.243416,0.571499 0.243416,0.211665 0.603248,0.285749 0.370416,0.0635 0.793748,0.169332 0.423332,0.09525 0.783164,0.211666 0.370415,0.105833 0.613831,0.423332 0.243416,0.317499 0.243416,0.804331 0,0.624415 -0.476248,1.047747 -0.476249,0.423332 -1.28058,0.507998 v 1.259413 q 0,0.285749 -0.211666,0.285749 -0.222249,0 -0.222249,-0.285749 v -1.259413 q -0.370415,-0.02117 -0.751414,-0.179916 -0.380999,-0.158749 -0.582082,-0.391582 v 0.169333 q 0,0.285749 -0.211666,0.285749 -0.222249,0 -0.222249,-0.285749 v -0.836081 q 0,-0.285749 0.222249,-0.285749 0.179917,0 0.211666,0.264583 0.03175,0.338665 0.486832,0.592664 0.465665,0.253999 1.047747,0.253999 0.677331,0 1.111246,-0.317498 0.444499,-0.328083 0.444499,-0.825498 z"
         style="stroke-width:0.264583"
         id="path840" />
      <path
         d="m 46.377031,26.739303 q 0.550331,0 0.920747,0.391582 0.380998,0.380999 0.380998,0.941913 0,0.529165 -0.380998,0.910164 -0.380999,0.380999 -0.910164,0.380999 -0.539748,0 -0.920747,-0.380999 -0.380999,-0.391582 -0.380999,-0.93133 0,-0.539748 0.380999,-0.920747 0.380999,-0.391582 0.910164,-0.391582 z m 0,0.402165 q -0.370416,0 -0.634998,0.264583 -0.254,0.264582 -0.254,0.645581 0,0.370415 0.264583,0.645581 0.264582,0.264583 0.634998,0.264583 0.359832,0 0.624415,-0.264583 0.264582,-0.264582 0.264582,-0.634998 0,-0.391582 -0.264582,-0.656164 -0.254,-0.264583 -0.634998,-0.264583 z m -1.31233,-4.370903 q 0.550332,0 0.920748,0.380999 0.380998,0.380999 0.380998,0.941914 0,0.529165 -0.380998,0.920747 -0.380999,0.380999 -0.910164,0.380999 -0.539749,0 -0.920747,-0.380999 -0.380999,-0.391582 -0.380999,-0.931331 0,-0.539748 0.380999,-0.920747 0.380998,-0.391582 0.910163,-0.391582 z m 0,0.402166 q -0.359832,0 -0.624414,0.275165 -0.264583,0.264583 -0.264583,0.634998 0,0.370416 0.264583,0.645582 0.264582,0.264582 0.634998,0.264582 0.359832,0 0.624414,-0.264582 0.264583,-0.275166 0.264583,-0.634998 0,-0.391582 -0.264583,-0.656165 -0.253999,-0.264582 -0.634998,-0.264582 z m 2.730492,2.423575 -4.011071,1.291163 q -0.07408,0.03175 -0.126999,0.03175 -0.0635,0 -0.127,-0.0635 -0.05292,-0.0635 -0.05292,-0.137583 0,-0.148166 0.1905,-0.211666 l 4.01107,-1.291162 q 0.08467,-0.02117 0.127,-0.02117 0.07408,0 0.127,0.0635 0.05292,0.05292 0.05292,0.137583 0,0.137582 -0.190499,0.201082 z"
         style="stroke-width:0.264583"
         id="path842" />
      <path
         d="m 53.065658,29.236961 -0.328082,-0.507998 q -0.476248,0.677331 -1.185329,0.677331 -0.624415,0 -1.079497,-0.497415 -0.455082,-0.497415 -0.455082,-1.174746 0,-0.550332 0.306916,-0.952497 0.317499,-0.412749 0.86783,-0.582082 -0.359832,-0.582081 -0.444498,-0.772581 -0.08467,-0.190499 -0.08467,-0.423331 0,-0.518582 0.380999,-0.888998 0.391582,-0.370415 0.920747,-0.370415 0.349249,0 0.698498,0.211666 0.201083,-0.116416 0.275166,-0.116416 0.07408,0 0.137583,0.07408 0.0635,0.0635 0.0635,0.148166 0,0.126999 -0.169333,0.222249 l -0.338666,0.169333 q -0.317499,-0.275166 -0.666748,-0.275166 -0.338665,0 -0.603248,0.264583 -0.264582,0.253999 -0.264582,0.582081 0,0.328082 0.465665,1.05833 l 1.174746,1.873244 q 0.328082,-0.613831 0.486832,-1.354662 h 0.455082 q 0.285749,0 0.285749,0.211666 0,0.222249 -0.285749,0.222249 h -0.127 q -0.232832,0.878414 -0.560915,1.333496 l 0.285749,0.433915 h 0.402166 q 0.285749,0 0.285749,0.211666 0,0.222249 -0.285749,0.222249 z M 52.483577,28.326798 51.37233,26.580553 q -0.423332,0.09525 -0.677331,0.412749 -0.243416,0.306916 -0.243416,0.740831 0,0.497415 0.328083,0.86783 0.328082,0.370416 0.761997,0.370416 0.582082,0 0.941914,-0.645581 z"
         style="stroke-width:0.264583"
         id="path844" />
      <path
         d="m 57.754045,22.844648 h 1.354662 l -0.359832,2.677575 q -0.05292,0.380999 -0.317499,0.380999 -0.264583,0 -0.317499,-0.380999 z"
         style="stroke-width:0.264583"
         id="path846" />
      <path
         d="m 64.71784,26.66522 q 0,-0.783165 0.317499,-1.714495 0.328082,-0.941914 0.687915,-1.523995 0.359832,-0.582082 0.518581,-0.582082 0.08467,0 0.148166,0.0635 0.0635,0.0635 0.0635,0.148166 0,0.116417 -0.169333,0.433916 -0.169332,0.306915 -0.380998,0.687914 -0.201083,0.370416 -0.370416,1.05833 -0.169333,0.687915 -0.169333,1.460495 0,1.619245 1.05833,3.524239 0.03175,0.07408 0.03175,0.116417 0,0.08467 -0.07408,0.148166 -0.0635,0.0635 -0.148166,0.0635 -0.169333,0 -0.529165,-0.582082 Q 65.352838,29.395711 65.035339,28.443214 64.71784,27.490717 64.71784,26.66522 Z"
         style="stroke-width:0.264583"
         id="path848" />
      <path
         d="m 69.512059,30.337625 q 0,-0.116417 0.169333,-0.433916 0.169333,-0.306915 0.370415,-0.677331 0.211666,-0.380999 0.380999,-1.068913 0.169333,-0.687915 0.169333,-1.460496 0,-1.629828 -1.05833,-3.524238 -0.03175,-0.08467 -0.03175,-0.116417 0,-0.08467 0.0635,-0.148166 0.07408,-0.0635 0.158749,-0.0635 0.169333,0 0.518582,0.582082 0.359832,0.571498 0.677331,1.523995 0.317499,0.952497 0.317499,1.777994 0,0.783165 -0.328082,1.725078 -0.317499,0.931331 -0.677331,1.513412 -0.359832,0.582082 -0.518582,0.582082 -0.08467,0 -0.148166,-0.0635 -0.0635,-0.0635 -0.0635,-0.148166 z"
         style="stroke-width:0.264583"
         id="path850" />
      <path
         d="m 77.259019,24.601476 v -1.471079 q 0,-0.285749 0.222249,-0.285749 0.211666,0 0.211666,0.285749 v 1.471079 l 1.407579,-0.455082 q 0.08467,-0.03175 0.158749,-0.03175 0.07408,0 0.137583,0.0635 0.0635,0.0635 0.0635,0.148166 0,0.15875 -0.222249,0.232833 l -1.407579,0.444499 0.857247,1.185329 q 0.07408,0.127 0.07408,0.190499 0,0.08467 -0.0635,0.148167 -0.0635,0.0635 -0.148167,0.0635 -0.105833,0 -0.211666,-0.148166 l -0.86783,-1.185329 -0.857247,1.185329 q -0.116417,0.148166 -0.22225,0.148166 -0.08467,0 -0.148166,-0.0635 -0.0635,-0.0635 -0.0635,-0.15875 0,-0.0635 0.08467,-0.179916 l 0.857247,-1.185329 -1.407579,-0.444499 q -0.211666,-0.05292 -0.211666,-0.222249 0,-0.08467 0.0635,-0.148167 0.0635,-0.0635 0.148166,-0.0635 0.03175,0 0.137583,0.03175 z"
         style="stroke-width:0.264583"
         id="path852" />
      <path
         d="m 84.042898,26.47472 v 2.137827 q 0,0.285749 -0.211666,0.285749 -0.222249,0 -0.222249,-0.285749 V 26.47472 h -1.904994 q -0.285749,0 -0.285749,-0.222249 0,-0.211666 0.285749,-0.211666 h 1.904994 v -2.127243 q 0,-0.285749 0.222249,-0.285749 0.211666,0 0.211666,0.285749 v 2.127243 h 1.904994 q 0.296333,0 0.296333,0.211666 0,0.222249 -0.296333,0.222249 z"
         style="stroke-width:0.264583"
         id="path854" />
      <path
         d="m 89.196946,27.702383 h 1.407579 l -1.534579,2.804574 q -0.137583,0.264583 -0.328082,0.264583 -0.127,0 -0.222249,-0.09525 -0.08467,-0.08467 -0.08467,-0.211666 0,-0.03175 0.02117,-0.116416 z"
         style="stroke-width:0.264583"
         id="path856" />
      <path
         d="m 98.658404,26.50647 h -4.254487 q -0.285749,0 -0.285749,-0.222249 0,-0.211666 0.285749,-0.211666 h 4.254487 q 0.285749,0 0.285749,0.211666 0,0.222249 -0.285749,0.222249 z"
         style="stroke-width:0.264583"
         id="path858" />
      <path
         d="m 102.8282,28.009299 h 0.10584 q 0.30691,0 0.51858,0.201082 0.21167,0.1905 0.21167,0.486832 0,0.296332 -0.21167,0.497415 -0.21167,0.201083 -0.51858,0.201083 h -0.10584 q -0.30691,0 -0.51858,-0.201083 -0.21166,-0.201083 -0.21166,-0.497415 0,-0.296332 0.21166,-0.486832 0.21167,-0.201082 0.51858,-0.201082 z"
         style="stroke-width:0.264583"
         id="path860" />
      <path
         d="m 111.15725,22.537733 -3.46074,7.365976 q -0.0953,0.1905 -0.23283,0.1905 -0.0847,0 -0.14817,-0.0635 -0.0635,-0.0635 -0.0635,-0.137583 0,-0.05292 0.0529,-0.169333 l 3.46074,-7.365976 q 0.0847,-0.1905 0.23283,-0.1905 0.0847,0 0.14817,0.0635 0.0635,0.0635 0.0635,0.137583 0,0.0635 -0.0529,0.169333 z"
         style="stroke-width:0.264583"
         id="path862" />
      <path
         d="m 15.960708,38.751347 v 1.05833 q 0,1.248829 -0.550332,2.031993 -0.550332,0.783164 -1.428745,0.783164 -0.878414,0 -1.428746,-0.783164 -0.550332,-0.783164 -0.550332,-2.031993 v -1.05833 q 0,-1.259413 0.550332,-2.042577 0.550332,-0.783164 1.428746,-0.783164 0.878413,0 1.428745,0.783164 0.550332,0.783164 0.550332,2.042577 z m -1.979077,-2.391826 q -0.719665,0 -1.132414,0.730248 -0.412748,0.719664 -0.412748,1.714494 v 0.941914 q 0,1.037163 0.423332,1.746244 0.433915,0.698498 1.12183,0.698498 0.719664,0 1.132413,-0.719664 0.412748,-0.730248 0.412748,-1.725078 v -0.941914 q 0,-1.037163 -0.433915,-1.735661 -0.423332,-0.709081 -1.111246,-0.709081 z"
         style="stroke-width:0.264583"
         id="path864" />
      <path
         d="m 20.553843,35.989106 v 6.043064 h 1.471079 q 0.285749,0 0.285749,0.211666 0,0.222249 -0.285749,0.222249 H 18.64885 q -0.296333,0 -0.296333,-0.222249 0,-0.211666 0.296333,-0.211666 h 1.471078 v -5.471566 l -1.195913,1.195913 q -0.08467,0.08467 -0.222249,0.08467 -0.08467,0 -0.148166,-0.0635 -0.05292,-0.07408 -0.05292,-0.179916 0,-0.09525 0.116417,-0.211666 l 1.396995,-1.396995 z"
         style="stroke-width:0.264583"
         id="path866" />
      <path
         d="m 24.607231,37.491934 q 0,-0.476248 0.571498,-1.015997 0.582082,-0.550331 1.396996,-0.550331 0.772581,0 1.354662,0.550331 0.592665,0.550332 0.592665,1.269996 0,0.476249 -0.285749,0.899581 -0.275166,0.412748 -1.238246,1.312329 l -2.190743,2.042577 v 0.03175 h 3.323156 v -0.380999 q 0,-0.285749 0.222249,-0.285749 0.211666,0 0.211666,0.285749 v 0.814914 h -4.16982 v -0.634998 l 2.497659,-2.349493 q 0.740831,-0.730247 0.96308,-1.05833 0.232833,-0.328082 0.232833,-0.687914 0,-0.550332 -0.455082,-0.96308 -0.455082,-0.412749 -1.05833,-0.412749 -0.539748,0 -0.984247,0.317499 -0.433915,0.317499 -0.560915,0.793747 -0.0635,0.211666 -0.222249,0.211666 -0.07408,0 -0.137583,-0.05292 -0.0635,-0.0635 -0.0635,-0.137583 z"
         style="stroke-width:0.264583"
         id="path868" />
      <path
         d="m 31.179444,36.878103 q 0,-0.116417 0.201082,-0.328083 0.211666,-0.211666 0.666748,-0.412748 0.455082,-0.211666 0.99483,-0.211666 0.793748,0 1.322913,0.476248 0.539748,0.465665 0.539748,1.15358 0,0.613831 -0.349249,0.973663 -0.338665,0.359833 -0.740831,0.465666 0.624415,0.253999 0.973664,0.709081 0.349249,0.444498 0.349249,0.984247 0,0.80433 -0.656165,1.375829 -0.645581,0.560914 -1.555745,0.560914 -0.624415,0 -1.344079,-0.306915 -0.709081,-0.317499 -0.709081,-0.582082 0,-0.07408 0.0635,-0.137583 0.0635,-0.0635 0.137583,-0.0635 0.07408,0 0.296332,0.169332 0.222249,0.15875 0.634998,0.328083 0.412749,0.158749 0.93133,0.158749 0.719665,0 1.238246,-0.444498 0.529165,-0.444499 0.529165,-1.05833 0,-0.624415 -0.560915,-1.068914 -0.560914,-0.455082 -1.333495,-0.455082 -0.285749,0 -0.285749,-0.222249 0,-0.211666 0.285749,-0.211666 1.661578,0 1.661578,-1.164163 0,-0.518582 -0.412749,-0.857247 -0.412749,-0.349249 -1.02658,-0.349249 -0.444499,0 -0.761998,0.116416 -0.306915,0.105833 -0.433915,0.243416 -0.116416,0.137583 -0.232832,0.253999 -0.116417,0.105833 -0.211666,0.105833 -0.08467,0 -0.148167,-0.05292 -0.0635,-0.0635 -0.0635,-0.148166 z"
         style="stroke-width:0.264583"
         id="path870" />
      <path
         d="m 40.185816,40.677507 h -2.868074 v -0.497415 l 2.412992,-4.10632 h 0.888997 v 4.16982 h 0.359832 q 0.28575,0 0.28575,0.222249 0,0.211666 -0.28575,0.211666 h -0.359832 v 1.354663 h 0.359832 q 0.28575,0 0.28575,0.211666 0,0.222249 -0.28575,0.222249 h -1.598078 q -0.285749,0 -0.285749,-0.222249 0,-0.211666 0.285749,-0.211666 h 0.804331 z m 0,-0.433915 v -3.735905 h -0.253999 l -2.201327,3.735905 z"
         style="stroke-width:0.264583"
         id="path872" />
      <path
         d="m 45.900782,38.719597 q -0.412749,0 -0.740831,0.105833 -0.328082,0.105833 -0.529165,0.222249 -0.201083,0.105833 -0.296332,0.105833 -0.201083,0 -0.201083,-0.232832 v -2.846908 h 2.984491 q 0.296332,0 0.296332,0.211666 0,0.222249 -0.296332,0.222249 h -2.550576 v 2.095494 q 0.772581,-0.317499 1.396996,-0.317499 0.814914,0 1.344079,0.582081 0.529165,0.582082 0.529165,1.471079 0,0.99483 -0.613831,1.640411 -0.603249,0.645581 -1.545162,0.645581 -0.412749,0 -0.825498,-0.126999 -0.402165,-0.127 -0.677331,-0.296333 -0.264582,-0.179916 -0.433915,-0.349248 -0.169333,-0.169333 -0.169333,-0.254 0,-0.08467 0.0635,-0.148166 0.0635,-0.0635 0.148166,-0.0635 0.07408,0 0.296333,0.201083 0.222249,0.201083 0.634998,0.402165 0.412748,0.201083 0.941913,0.201083 0.772581,0 1.259413,-0.518582 0.486832,-0.518581 0.486832,-1.354662 0,-0.709081 -0.423332,-1.15358 -0.412749,-0.444498 -1.079497,-0.444498 z"
         style="stroke-width:0.264583"
         id="path874" />
      <path
         d="m 54.071072,36.507687 q -0.03175,0 -0.211666,-0.07408 -0.169333,-0.07408 -0.465665,-0.07408 -0.423332,0 -0.867831,0.201083 -0.444498,0.190499 -0.846664,0.550331 -0.402165,0.359832 -0.666748,0.973664 -0.253999,0.613831 -0.253999,1.365246 0,0.05292 0.02117,0.455081 0.645581,-1.291162 1.756827,-1.291162 0.719665,0 1.238246,0.582081 0.529165,0.582082 0.529165,1.386413 0,0.857247 -0.529165,1.449912 -0.529164,0.592664 -1.301745,0.592664 -0.941914,0 -1.534579,-0.878413 -0.592665,-0.878414 -0.592665,-2.264827 0,-1.576911 0.888998,-2.561158 0.89958,-0.99483 2.201326,-0.99483 0.338665,0 0.582081,0.116416 0.254,0.105833 0.254,0.253999 0,0.08467 -0.0635,0.148166 -0.05292,0.0635 -0.137583,0.0635 z m -3.227907,3.968738 q 0.22225,0.857247 0.613832,1.291162 0.391582,0.423332 1.02658,0.423332 0.592665,0 0.984247,-0.465665 0.402165,-0.465665 0.402165,-1.142996 0,-0.624415 -0.402165,-1.079497 -0.391582,-0.455082 -0.941914,-0.455082 -0.264582,0 -0.529165,0.127 -0.253999,0.126999 -0.412749,0.264582 -0.158749,0.127 -0.349248,0.391582 -0.179917,0.253999 -0.232833,0.338666 -0.04233,0.08467 -0.15875,0.306916 z"
         style="stroke-width:0.264583"
         id="path876" />
      <path
         d="m 59.881288,36.698187 v -0.1905 h -3.07974 v 0.370416 q 0,0.296332 -0.211666,0.296332 -0.22225,0 -0.22225,-0.296332 v -0.804331 h 3.947571 v 0.687914 l -1.725078,5.492733 q -0.07408,0.222249 -0.211666,0.222249 -0.08467,0 -0.148166,-0.0635 -0.0635,-0.0635 -0.0635,-0.148166 0,-0.05292 0.02117,-0.137583 z"
         style="stroke-width:0.264583"
         id="path878" />
      <path
         d="m 65.575087,39.153512 q 1.18533,0.539748 1.18533,1.608662 0,0.772581 -0.582082,1.322912 -0.582081,0.539748 -1.396995,0.539748 -0.814914,0 -1.396996,-0.539748 -0.582081,-0.550331 -0.582081,-1.322912 0,-1.05833 1.185329,-1.608662 -1.079496,-0.550331 -1.079496,-1.481662 0,-0.709081 0.550331,-1.227663 0.560915,-0.518581 1.322913,-0.518581 0.761997,0 1.312329,0.518581 0.560915,0.518582 0.560915,1.227663 0,0.931331 -1.079497,1.481662 z m 0.22225,-2.402409 q -0.412749,-0.391582 -1.015997,-0.391582 -0.603248,0 -1.02658,0.391582 -0.412749,0.380999 -0.412749,0.941914 0,0.518581 0.412749,0.888997 0.423332,0.359832 1.02658,0.359832 0.592665,0 1.015997,-0.359832 0.423332,-0.359832 0.423332,-0.878414 0,-0.560915 -0.423332,-0.952497 z m -1.015997,2.614075 q -0.645581,0 -1.100663,0.402166 -0.444499,0.402165 -0.444499,0.99483 0,0.592664 0.444499,1.015996 0.455082,0.412749 1.100663,0.412749 0.634998,0 1.09008,-0.412749 0.455082,-0.423332 0.455082,-1.005413 0,-0.603248 -0.444499,-1.005413 -0.444499,-0.402166 -1.100663,-0.402166 z"
         style="stroke-width:0.264583"
         id="path880" />
      <path
         d="m 69.628475,42.042753 q 0.03175,0 0.201083,0.07408 0.179916,0.07408 0.476249,0.07408 0.423332,0 0.86783,-0.190499 0.444499,-0.201083 0.846664,-0.560915 0.402166,-0.359832 0.656165,-0.973664 0.264582,-0.613831 0.264582,-1.365245 0,-0.05292 -0.02117,-0.455082 -0.645582,1.291162 -1.756828,1.291162 -0.719664,0 -1.248829,-0.582081 -0.518582,-0.582082 -0.518582,-1.386412 0,-0.857248 0.529165,-1.449912 0.529165,-0.592665 1.301746,-0.592665 0.941913,0 1.534578,0.878414 0.592665,0.878413 0.592665,2.264826 0,1.576911 -0.899581,2.571742 -0.888997,0.984246 -2.190743,0.984246 -0.338665,0 -0.592664,-0.116416 -0.243416,-0.105833 -0.243416,-0.253999 0,-0.08467 0.05292,-0.148166 0.0635,-0.0635 0.148166,-0.0635 z m 3.227907,-3.968737 q -0.222249,-0.857248 -0.613832,-1.28058 -0.391582,-0.433915 -1.02658,-0.433915 -0.592664,0 -0.99483,0.465665 -0.391582,0.465665 -0.391582,1.142997 0,0.624414 0.391582,1.079496 0.402166,0.455082 0.952497,0.455082 0.264583,0 0.518582,-0.127 0.264582,-0.126999 0.423332,-0.253999 0.158749,-0.137583 0.338665,-0.391582 0.1905,-0.264582 0.232833,-0.349249 0.05292,-0.08467 0.169333,-0.306915 z"
         style="stroke-width:0.264583"
         id="path882" />
      <path
         d="m 77.428352,41.238422 h 0.105833 q 0.306915,0 0.518581,0.201083 0.211666,0.190499 0.211666,0.486832 0,0.296332 -0.211666,0.497415 -0.211666,0.201082 -0.518581,0.201082 h -0.105833 q -0.306916,0 -0.518582,-0.201082 -0.211666,-0.201083 -0.211666,-0.497415 0,-0.296333 0.211666,-0.486832 0.211666,-0.201083 0.518582,-0.201083 z m 0,-3.185573 h 0.105833 q 0.306915,0 0.518581,0.201083 0.211666,0.201082 0.211666,0.497415 0,0.296332 -0.211666,0.497415 -0.211666,0.201083 -0.518581,0.201083 h -0.105833 q -0.306916,0 -0.518582,-0.201083 -0.211666,-0.201083 -0.211666,-0.497415 0,-0.296333 0.211666,-0.497415 0.211666,-0.201083 0.518582,-0.201083 z"
         style="stroke-width:0.264583"
         id="path884" />
      <path
         d="m 82.889319,40.931506 h 1.407578 l -1.534578,2.804575 q -0.137583,0.264582 -0.328082,0.264582 -0.127,0 -0.22225,-0.09525 -0.08467,-0.08467 -0.08467,-0.211666 0,-0.03175 0.02117,-0.116417 z m 0.634998,-2.878657 h 0.105833 q 0.306915,0 0.518581,0.201083 0.211666,0.201082 0.211666,0.497415 0,0.296332 -0.211666,0.497415 -0.211666,0.201083 -0.518581,0.201083 h -0.105833 q -0.306916,0 -0.518582,-0.201083 -0.211666,-0.201083 -0.211666,-0.497415 0,-0.296333 0.211666,-0.497415 0.211666,-0.201083 0.518582,-0.201083 z"
         style="stroke-width:0.264583"
         id="path886" />
      <path
         d="m 92.530685,41.757004 q 0,0.07408 -0.0635,0.158749 -0.0635,0.08467 -0.148166,0.08467 -0.05292,0 -0.137583,-0.05292 L 87.7682,39.492178 92.19202,37.036852 q 0.08467,-0.05292 0.126999,-0.05292 0.07408,0 0.137583,0.07408 0.07408,0.07408 0.07408,0.158749 0,0.116417 -0.137583,0.1905 l -3.757071,2.08491 3.757071,2.08491 q 0.137583,0.07408 0.137583,0.179916 z"
         style="stroke-width:0.264583"
         id="path888" />
      <path
         d="m 98.880653,38.931263 h -4.698985 q -0.285749,0 -0.285749,-0.222249 0,-0.211666 0.285749,-0.211666 h 4.698985 q 0.285749,0 0.285749,0.211666 0,0.222249 -0.285749,0.222249 z m 0,1.523995 h -4.698985 q -0.285749,0 -0.285749,-0.222249 0,-0.211666 0.285749,-0.211666 h 4.698985 q 0.285749,0 0.285749,0.211666 0,0.222249 -0.285749,0.222249 z"
         style="stroke-width:0.264583"
         id="path890" />
      <path
         d="m 100.53163,37.216768 q 0,-0.05292 0.0529,-0.137583 0.0635,-0.09525 0.15875,-0.09525 0.0529,0 0.13759,0.05292 l 4.41323,2.455326 -4.42382,2.455325 q -0.0847,0.05292 -0.127,0.05292 -0.0847,0 -0.14816,-0.07408 -0.0635,-0.07408 -0.0635,-0.169333 0,-0.105833 0.13758,-0.179916 l 3.75707,-2.08491 -3.75707,-2.08491 q -0.13758,-0.07408 -0.13758,-0.1905 z"
         style="stroke-width:0.264583"
         id="path892" />
      <path
         d="m 107.47426,36.867519 q 0.10583,-0.03175 0.43392,-0.179916 0.32808,-0.158749 0.65616,-0.243416 0.33867,-0.08467 0.762,-0.08467 0.84666,0 1.36524,0.455082 0.51859,0.444498 0.51859,1.174746 0,0.592665 -0.381,0.99483 -0.37042,0.402166 -1.36525,0.867831 v 0.433915 q 0,0.285749 -0.21166,0.285749 -0.22225,0 -0.22225,-0.285749 v -0.719664 q 0.93133,-0.391582 1.33349,-0.751414 0.41275,-0.370416 0.41275,-0.825498 0,-0.529165 -0.42333,-0.857247 -0.42333,-0.338666 -1.0795,-0.338666 -0.64558,0 -1.36524,0.359832 v 0.433916 q 0,0.285749 -0.21167,0.285749 -0.22225,0 -0.22225,-0.285749 z m 1.61925,4.698985 h 0.28575 q 0.27516,0 0.43391,0.148167 0.16933,0.148166 0.16933,0.380998 0,0.232833 -0.16933,0.380999 -0.16933,0.148166 -0.43391,0.148166 h -0.28575 q -0.27517,0 -0.4445,-0.148166 -0.15875,-0.148166 -0.15875,-0.380999 0,-0.232832 0.15875,-0.380998 0.16933,-0.148167 0.4445,-0.148167 z"
         style="stroke-width:0.264583"
         id="path894" />
      <path
         d="m 13.971047,56.351375 q -0.920747,0 -1.492245,-0.783164 -0.560915,-0.793747 -0.560915,-1.968493 V 51.87464 q 0,-1.206496 0.582082,-1.989661 0.582081,-0.793747 1.481662,-0.793747 0.719664,0 1.195912,0.486832 0.486832,0.486831 0.486832,1.217079 v 2.931574 q 0.201083,0.03175 0.201083,0.211666 0,0.222249 -0.285749,0.222249 H 15.23046 v -0.05292 q -0.317499,0.03175 -0.423332,0.03175 -0.613831,0 -1.02658,-0.380999 -0.412749,-0.380999 -0.412749,-0.941914 0,-0.645581 0.507999,-1.079496 0.518581,-0.444499 1.354662,-0.444499 v -0.497415 q 0,-0.550331 -0.349249,-0.910164 -0.349249,-0.359832 -0.888997,-0.359832 -0.719665,0 -1.18533,0.666748 -0.455082,0.666748 -0.455082,1.714495 v 1.693328 q 0,0.984246 0.455082,1.650994 0.455082,0.666748 1.227663,0.666748 0.444499,0 0.719664,-0.116416 0.285749,-0.105833 0.402166,-0.211666 0.126999,-0.105833 0.190499,-0.105833 0.08467,0 0.148166,0.0635 0.0635,0.05292 0.0635,0.137583 0,0.243415 -0.507998,0.455081 -0.497415,0.211666 -1.079497,0.211666 z M 15.23046,53.663217 V 51.71589 q -0.624415,0 -1.02658,0.306916 -0.402166,0.306916 -0.402166,0.783164 0,0.402165 0.28575,0.656165 0.296332,0.243416 0.751414,0.243416 0.222249,0 0.391582,-0.04233 z"
         style="stroke-width:0.264583"
         id="path896" />
      <path
         d="m 21.686257,53.705551 h -2.815158 l -0.571498,1.555745 h 0.83608 q 0.285749,0 0.285749,0.211666 0,0.222249 -0.285749,0.222249 h -1.598078 q -0.285749,0 -0.285749,-0.222249 0,-0.211666 0.285749,-0.211666 h 0.328082 l 1.894411,-5.090568 H 18.4901 q -0.285749,0 -0.285749,-0.222249 0,-0.211666 0.285749,-0.211666 h 2.158993 l 2.08491,5.524483 h 0.391582 q 0.285749,0 0.285749,0.211666 0,0.222249 -0.285749,0.222249 h -1.650994 q -0.28575,0 -0.28575,-0.222249 0,-0.211666 0.28575,-0.211666 h 0.80433 z m -0.15875,-0.433916 -1.18533,-3.100907 h -0.158749 l -1.142996,3.100907 z"
         style="stroke-width:0.264583"
         id="path898" />
      <path
         d="m 24.818897,55.261296 v -5.090568 h -0.571498 q -0.285749,0 -0.285749,-0.222249 0,-0.211666 0.285749,-0.211666 h 2.730491 q 0.772581,0 1.291163,0.444499 0.518581,0.433915 0.518581,1.09008 0,0.783164 -0.89958,1.269996 1.344079,0.476248 1.344079,1.534578 0,0.666748 -0.518582,1.142996 -0.507998,0.476249 -1.227662,0.476249 h -3.23849 q -0.285749,0 -0.285749,-0.222249 0,-0.211666 0.285749,-0.211666 z m 0.433915,-2.878658 h 1.555745 q 0.677332,0 1.111247,-0.317499 0.433915,-0.317499 0.433915,-0.804331 0,-0.465665 -0.391582,-0.772581 -0.391582,-0.317499 -0.973663,-0.317499 h -1.735662 z m 3.545406,1.693328 q 0,-0.222249 -0.09525,-0.423332 -0.08467,-0.201083 -0.285749,-0.391582 -0.201083,-0.201083 -0.613831,-0.317499 -0.402166,-0.127 -0.973664,-0.127 h -1.576912 v 2.444743 h 2.201327 q 0.560915,0 0.952497,-0.338666 0.391582,-0.349249 0.391582,-0.846664 z"
         style="stroke-width:0.264583"
         id="path900" />
      <path
         d="m 30.523279,52.255639 q 0,-0.201083 0.05292,-0.486832 0.0635,-0.296333 0.243415,-0.687915 0.179917,-0.391582 0.444499,-0.709081 0.264582,-0.317499 0.740831,-0.539748 0.476248,-0.232833 1.079497,-0.232833 1.068913,0 1.83091,0.730248 v -0.306916 q 0,-0.285749 0.22225,-0.285749 0.211666,0 0.211666,0.285749 v 1.18533 q 0,0.285749 -0.22225,0.285749 -0.190499,0 -0.211666,-0.253999 -0.03175,-0.486832 -0.582081,-0.846664 -0.539748,-0.359832 -1.248829,-0.359832 -0.878414,0 -1.502829,0.677331 -0.624415,0.666748 -0.624415,1.608661 v 0.751415 q 0,0.952497 0.687915,1.661578 0.687914,0.698497 1.619245,0.698497 0.550331,0 0.984246,-0.222249 0.433916,-0.222249 0.857248,-0.730248 0.09525,-0.105833 0.190499,-0.105833 0.211666,0 0.211666,0.201083 0,0.09525 -0.169333,0.296333 -0.169332,0.201082 -0.444498,0.433915 -0.275166,0.222249 -0.719665,0.391582 -0.444498,0.169333 -0.910163,0.169333 -1.079497,0 -1.915578,-0.825498 -0.825497,-0.83608 -0.825497,-1.904994 z"
         style="stroke-width:0.264583"
         id="path902" />
      <path
         d="m 37.307158,55.261296 v -5.090568 h -0.359832 q -0.285749,0 -0.285749,-0.222249 0,-0.211666 0.285749,-0.211666 h 2.328326 q 1.02658,0 1.725078,0.783164 0.709081,0.772581 0.709081,1.894411 v 0.592665 q 0,1.132413 -0.709081,1.915577 -0.698498,0.772581 -1.725078,0.772581 h -2.328326 q -0.285749,0 -0.285749,-0.222249 0,-0.211666 0.285749,-0.211666 z m 3.968738,-2.931574 q 0,-0.211666 -0.09525,-0.529165 -0.09525,-0.317499 -0.306916,-0.698498 -0.201082,-0.391582 -0.634998,-0.656165 -0.423332,-0.275166 -0.984246,-0.275166 h -1.513412 v 5.090568 h 1.587495 q 0.761997,0 1.354662,-0.656165 0.592665,-0.656165 0.592665,-1.502829 z"
         style="stroke-width:0.264583"
         id="path904" />
      <path
         d="m 44.302704,52.816553 v 2.444743 h 3.323156 v -1.259413 q 0,-0.285749 0.222249,-0.285749 0.211666,0 0.211666,0.285749 v 1.693328 H 43.29729 q -0.285749,0 -0.285749,-0.222249 0,-0.211666 0.285749,-0.211666 h 0.571499 V 50.170728 H 43.29729 q -0.285749,0 -0.285749,-0.222249 0,-0.211666 0.285749,-0.211666 h 4.540236 v 1.471079 q 0,0.285749 -0.222249,0.285749 -0.211666,0 -0.211666,-0.285749 v -1.037164 h -3.100907 v 2.21191 h 1.534578 V 51.90639 q 0,-0.285749 0.22225,-0.285749 0.211666,0 0.211666,0.285749 v 1.386412 q 0,0.285749 -0.211666,0.285749 -0.22225,0 -0.22225,-0.285749 v -0.476249 z"
         style="stroke-width:0.264583"
         id="path906" />
      <path
         d="m 50.652666,52.816553 v 2.444743 h 1.460495 q 0.296333,0 0.296333,0.211666 0,0.222249 -0.296333,0.222249 h -2.465908 q -0.285749,0 -0.285749,-0.222249 0,-0.211666 0.285749,-0.211666 h 0.571498 v -5.090568 h -0.571498 q -0.285749,0 -0.285749,-0.222249 0,-0.211666 0.285749,-0.211666 h 4.762484 v 1.471079 q 0,0.285749 -0.222249,0.285749 -0.211666,0 -0.211666,-0.285749 v -1.037164 h -3.323156 v 2.21191 h 1.534579 V 51.90639 q 0,-0.285749 0.211666,-0.285749 0.222249,0 0.222249,0.285749 v 1.386412 q 0,0.285749 -0.222249,0.285749 -0.211666,0 -0.211666,-0.285749 v -0.476249 z"
         style="stroke-width:0.264583"
         id="path908" />
      <path
         d="m 58.590125,50.033146 q -0.656164,0 -1.132413,0.285749 -0.476248,0.285749 -0.698498,0.698497 -0.211666,0.412749 -0.306915,0.751415 -0.09525,0.338665 -0.09525,0.571498 v 0.772581 q 0,1.079496 0.656165,1.703911 0.656164,0.613831 1.79916,0.613831 0.740831,0 1.513412,-0.359832 v -1.587495 h -1.471078 q -0.285749,0 -0.285749,-0.222249 0,-0.211666 0.285749,-0.211666 h 2.05316 q 0.296332,0 0.296332,0.211666 0,0.222249 -0.296332,0.222249 h -0.148166 v 1.830911 q -0.952497,0.550332 -1.979077,0.550332 -1.301746,0 -2.08491,-0.751415 -0.772581,-0.751414 -0.772581,-2.000243 v -0.783164 q 0,-1.111247 0.740831,-1.915578 0.751414,-0.814914 1.904994,-0.814914 1.047746,0 1.756827,0.571498 v -0.148166 q 0,-0.285749 0.22225,-0.285749 0.211666,0 0.211666,0.285749 v 0.963081 q 0,0.285749 -0.211666,0.285749 -0.201083,0 -0.211666,-0.264583 -0.03175,-0.402165 -0.539749,-0.687914 -0.507998,-0.285749 -1.206496,-0.285749 z"
         style="stroke-width:0.264583"
         id="path910" />
      <path
         d="m 66.231252,52.816553 h -2.857491 v 2.444743 h 0.571498 q 0.285749,0 0.285749,0.211666 0,0.222249 -0.285749,0.222249 h -1.481662 q -0.296332,0 -0.296332,-0.222249 0,-0.211666 0.296332,-0.211666 h 0.476249 v -5.090568 h -0.264583 q -0.285749,0 -0.285749,-0.222249 0,-0.211666 0.285749,-0.211666 h 1.269996 q 0.285749,0 0.285749,0.211666 0,0.222249 -0.285749,0.222249 h -0.571498 v 2.21191 h 2.857491 v -2.21191 h -0.571498 q -0.285749,0 -0.285749,-0.222249 0,-0.211666 0.285749,-0.211666 h 1.269996 q 0.285749,0 0.285749,0.211666 0,0.222249 -0.285749,0.222249 h -0.264583 v 5.090568 h 0.486832 q 0.285749,0 0.285749,0.211666 0,0.222249 -0.285749,0.222249 h -1.492245 q -0.285749,0 -0.285749,-0.222249 0,-0.211666 0.285749,-0.211666 h 0.571498 z"
         style="stroke-width:0.264583"
         id="path912" />
      <path
         d="m 71.34297,50.170728 v 5.090568 h 1.471079 q 0.296332,0 0.296332,0.211666 0,0.222249 -0.296332,0.222249 h -3.376073 q -0.285749,0 -0.285749,-0.222249 0,-0.211666 0.285749,-0.211666 h 1.471079 v -5.090568 h -1.471079 q -0.285749,0 -0.285749,-0.222249 0,-0.211666 0.285749,-0.211666 h 3.376073 q 0.296332,0 0.296332,0.211666 0,0.222249 -0.296332,0.222249 z"
         style="stroke-width:0.264583"
         id="path914" />
      <path
         d="m 79.174596,50.170728 v 3.778238 q 0,0.783165 -0.592665,1.354663 -0.582081,0.560915 -1.396995,0.560915 -0.507999,0 -0.963081,-0.211666 -0.455081,-0.22225 -1.02658,-0.740831 v -1.576912 q 0,-0.285749 0.22225,-0.285749 0.211666,0 0.211666,0.285749 v 1.375829 q 0.793747,0.719664 1.566328,0.719664 0.645581,0 1.09008,-0.433915 0.455082,-0.433915 0.455082,-1.047747 v -3.778238 h -1.682745 q -0.285749,0 -0.285749,-0.222249 0,-0.211666 0.285749,-0.211666 h 3.132657 q 0.285749,0 0.285749,0.211666 0,0.222249 -0.285749,0.222249 z"
         style="stroke-width:0.264583"
         id="path916" />
      <path
         d="m 82.402487,53.356302 v 1.904994 h 0.793747 q 0.285749,0 0.285749,0.211666 0,0.222249 -0.285749,0.222249 h -1.799161 q -0.285749,0 -0.285749,-0.222249 0,-0.211666 0.285749,-0.211666 h 0.571499 v -5.090568 h -0.571499 q -0.285749,0 -0.285749,-0.222249 0,-0.211666 0.285749,-0.211666 h 1.799161 q 0.285749,0 0.285749,0.211666 0,0.222249 -0.285749,0.222249 h -0.793747 v 2.635242 l 2.963324,-2.635242 h -0.476249 q -0.296332,0 -0.296332,-0.222249 0,-0.211666 0.296332,-0.211666 h 1.24883 q 0.296332,0 0.296332,0.211666 0,0.222249 -0.296332,0.222249 h -0.169333 l -2.349493,2.095494 q 0.772581,0.317499 1.195913,0.89958 0.423332,0.571498 1.015997,2.095494 h 0.592665 q 0.285749,0 0.285749,0.211666 0,0.222249 -0.285749,0.222249 H 85.503394 Q 84.921312,54.086549 84.46623,53.462135 84.011148,52.827137 83.259734,52.583721 Z"
         style="stroke-width:0.264583"
         id="path918" />
      <path
         d="m 89.408612,50.170728 v 5.090568 h 2.889241 v -1.693328 q 0,-0.285749 0.222249,-0.285749 0.211666,0 0.211666,0.285749 v 2.127243 H 87.9587 q -0.285749,0 -0.285749,-0.222249 0,-0.211666 0.285749,-0.211666 h 1.015996 V 50.170728 H 87.9587 q -0.285749,0 -0.285749,-0.222249 0,-0.211666 0.285749,-0.211666 h 2.465908 q 0.28575,0 0.28575,0.211666 0,0.222249 -0.28575,0.222249 z"
         style="stroke-width:0.264583"
         id="path920" />
      <path
         d="M 96.806326,53.906633 H 96.319495 L 94.63675,50.170728 h -0.08467 v 5.090568 h 0.783164 q 0.296332,0 0.296332,0.211666 0,0.222249 -0.296332,0.222249 h -1.576912 q -0.285749,0 -0.285749,-0.222249 0,-0.211666 0.285749,-0.211666 h 0.359832 v -5.090568 h -0.264582 q -0.285749,0 -0.285749,-0.222249 0,-0.211666 0.285749,-0.211666 h 1.047746 l 1.661578,3.682988 1.629829,-3.682988 h 1.05833 q 0.285749,0 0.285749,0.211666 0,0.222249 -0.285749,0.222249 h -0.264583 v 5.090568 h 0.359832 q 0.285749,0 0.285749,0.211666 0,0.222249 -0.285749,0.222249 h -1.576911 q -0.285749,0 -0.285749,-0.222249 0,-0.211666 0.285749,-0.211666 h 0.783164 v -5.090568 h -0.08467 z"
         style="stroke-width:0.264583"
         id="path922" />
      <path
         d="m 105.00836,55.695211 h -0.55033 l -3.2279,-5.333983 v 4.900068 h 0.79374 q 0.28575,0 0.28575,0.211666 0,0.222249 -0.28575,0.222249 h -1.58749 q -0.28575,0 -0.28575,-0.222249 0,-0.211666 0.28575,-0.211666 h 0.35983 v -5.090568 h -0.5715 q -0.285746,0 -0.285746,-0.222249 0,-0.211666 0.285746,-0.211666 h 1.12183 l 3.22791,5.333983 v -4.900068 h -0.78317 q -0.29633,0 -0.29633,-0.222249 0,-0.211666 0.29633,-0.211666 h 1.57692 q 0.28575,0 0.28575,0.211666 0,0.222249 -0.28575,0.222249 h -0.35984 z"
         style="stroke-width:0.264583"
         id="path924" />
      <path
         d="m 109.23109,49.59923 q 1.12183,0 1.87324,0.920747 0.762,0.910164 0.762,2.254243 0,1.280579 -0.77258,2.190743 -0.77258,0.899581 -1.86266,0.899581 -1.10066,0 -1.87325,-0.910164 -0.76199,-0.910164 -0.76199,-2.222493 0,-1.312329 0.76199,-2.222493 0.77259,-0.910164 1.87325,-0.910164 z m 0,0.433916 q -0.91016,0 -1.55575,0.793747 -0.64558,0.793748 -0.64558,1.904994 0,1.111246 0.64558,1.904994 0.64559,0.793747 1.55575,0.793747 0.89958,0 1.54516,-0.783164 0.65617,-0.793747 0.65617,-1.883827 0,-1.142996 -0.64559,-1.936744 -0.63499,-0.793747 -1.55574,-0.793747 z"
         style="stroke-width:0.264583"
         id="path926" />
      <path
         d="m 114.1523,53.250469 v 2.010827 h 1.4605 q 0.29633,0 0.29633,0.211666 0,0.222249 -0.29633,0.222249 h -2.46591 q -0.28575,0 -0.28575,-0.222249 0,-0.211666 0.28575,-0.211666 h 0.5715 v -5.090568 h -0.5715 q -0.28575,0 -0.28575,-0.222249 0,-0.211666 0.28575,-0.211666 h 2.53999 q 0.84667,0 1.41816,0.507999 0.58209,0.497415 0.58209,1.238246 0,0.740831 -0.62442,1.259412 -0.62441,0.507999 -1.52399,0.507999 z m 0,-0.433916 h 1.41817 q 0.68791,0 1.18533,-0.391582 0.49741,-0.391582 0.49741,-0.941913 0,-0.539749 -0.45508,-0.920747 -0.4445,-0.391583 -1.06891,-0.391583 h -1.57692 z"
         style="stroke-width:0.264583"
         id="path928" />
      <path
         d="m 122.12151,56.637125 q -0.508,0 -1.016,0.126999 -0.49741,0.137583 -0.5715,0.137583 -0.0847,0 -0.14816,-0.0635 -0.0635,-0.0635 -0.0635,-0.158749 0,-0.105833 0.11641,-0.1905 l 0.9525,-0.687914 q -0.89958,-0.201083 -1.50283,-1.068913 -0.59266,-0.878414 -0.59266,-2.000244 0,-1.312329 0.762,-2.222493 0.77258,-0.910164 1.87324,-0.910164 1.10066,0 1.86266,0.910164 0.77258,0.910164 0.77258,2.222493 0,1.301746 -0.74083,2.201326 -0.74083,0.899581 -1.84149,0.931331 l -0.5715,0.423332 q 0.42333,-0.08467 0.70908,-0.08467 0.4445,0 0.81491,0.137583 0.381,0.137583 0.52917,0.137583 0.254,0 0.52916,-0.169333 0.28575,-0.158749 0.32809,-0.158749 0.0847,0 0.14816,0.0635 0.0635,0.0635 0.0635,0.158749 0,0.15875 -0.39158,0.349249 -0.381,0.190499 -0.70908,0.190499 -0.22225,0 -0.59267,-0.137583 -0.35983,-0.137582 -0.71966,-0.137582 z m -0.1905,-6.603979 q -0.91016,0 -1.55575,0.793747 -0.64558,0.793748 -0.64558,1.904994 0,1.111246 0.64558,1.904994 0.64559,0.793747 1.55575,0.793747 0.89958,0 1.54516,-0.783164 0.65617,-0.793747 0.65617,-1.883827 0,-1.142996 -0.64559,-1.936744 -0.63499,-0.793747 -1.55574,-0.793747 z"
         style="stroke-width:0.264583"
         id="path930" />
      <path
         d="m 126.85223,53.038803 v 2.222493 h 0.79375 q 0.28575,0 0.28575,0.211666 0,0.222249 -0.28575,0.222249 h -1.79916 q -0.28575,0 -0.28575,-0.222249 0,-0.211666 0.28575,-0.211666 h 0.5715 v -5.090568 h -0.5715 q -0.28575,0 -0.28575,-0.222249 0,-0.211666 0.28575,-0.211666 h 2.62466 q 0.77258,0 1.33349,0.497415 0.5715,0.486832 0.5715,1.15358 0,1.02658 -1.47108,1.534578 0.49742,0.338666 0.83608,0.772581 0.33867,0.433916 0.98425,1.566329 h 0.32808 q 0.28575,0 0.28575,0.211666 0,0.222249 -0.28575,0.222249 h -0.60325 q -0.69849,-1.291163 -1.15358,-1.830911 -0.44449,-0.550332 -1.04774,-0.825497 z m 0,-0.433916 h 1.2065 q 0.78316,0 1.33349,-0.359832 0.55034,-0.359832 0.55034,-0.86783 0,-0.476249 -0.45509,-0.836081 -0.44449,-0.370416 -1.01599,-0.370416 h -1.61925 z"
         style="stroke-width:0.264583"
         id="path932" />
      <path
         d="m 136.3666,54.075966 q 0,-0.444499 -0.27517,-0.719664 -0.27516,-0.275166 -0.68791,-0.359833 -0.40217,-0.09525 -0.889,-0.201082 -0.47625,-0.116417 -0.889,-0.232833 -0.40216,-0.126999 -0.67733,-0.455082 -0.27516,-0.338665 -0.27516,-0.86783 0,-0.698498 0.55033,-1.164163 0.56091,-0.476249 1.39699,-0.476249 0.91017,0 1.54517,0.624415 v -0.201083 q 0,-0.285749 0.22225,-0.285749 0.21166,0 0.21166,0.285749 v 1.09008 q 0,0.285749 -0.21166,0.285749 -0.21167,0 -0.22225,-0.253999 -0.0317,-0.476248 -0.46567,-0.793747 -0.43391,-0.317499 -1.04775,-0.317499 -0.65616,0 -1.09008,0.349248 -0.42333,0.349249 -0.42333,0.867831 0,0.412749 0.27517,0.666748 0.27516,0.253999 0.67733,0.349249 0.41275,0.08467 0.889,0.211666 0.48683,0.116416 0.88899,0.243416 0.41275,0.126999 0.68792,0.486831 0.27516,0.349249 0.27516,0.888998 0,0.772581 -0.61383,1.269996 -0.61383,0.497415 -1.56633,0.497415 -1.12183,0 -1.78857,-0.761998 v 0.306916 q 0,0.285749 -0.22225,0.285749 -0.21167,0 -0.21167,-0.285749 v -1.18533 q 0,-0.285749 0.22225,-0.285749 0.20108,0 0.21167,0.253999 0.0212,0.518582 0.53975,0.878414 0.51858,0.359832 1.23824,0.359832 0.74083,0 1.22766,-0.380998 0.49742,-0.391582 0.49742,-0.973664 z"
         style="stroke-width:0.264583"
         id="path934" />
      <path
         d="m 141.20316,55.261296 h 1.11124 q 0.28575,0 0.28575,0.211666 0,0.222249 -0.28575,0.222249 h -2.65641 q -0.28575,0 -0.28575,-0.222249 0,-0.211666 0.28575,-0.211666 h 1.11125 v -5.090568 h -1.76741 v 0.772581 q 0,0.285749 -0.22225,0.285749 -0.21167,0 -0.21167,-0.285749 v -1.206496 h 4.82599 v 1.206496 q 0,0.285749 -0.21167,0.285749 -0.0952,0 -0.15875,-0.07408 -0.0635,-0.08467 -0.0635,-0.211666 v -0.772581 h -1.75682 z"
         style="stroke-width:0.264583"
         id="path936" />
      <path
         d="m 16.087707,63.399854 v 3.566572 q 0,0.899581 -0.613831,1.513412 -0.603248,0.613832 -1.492245,0.613832 -0.899581,0 -1.502829,-0.603248 -0.603248,-0.613832 -0.603248,-1.523996 v -3.566572 h -0.359832 q -0.285749,0 -0.285749,-0.222249 0,-0.211666 0.285749,-0.211666 h 1.576911 q 0.285749,0 0.285749,0.211666 0,0.222249 -0.285749,0.222249 h -0.783164 v 3.566572 q 0,0.719665 0.476249,1.206497 0.486831,0.486831 1.195913,0.486831 0.698497,0 1.185329,-0.486831 0.486832,-0.497415 0.486832,-1.206497 v -3.566572 h -0.783164 q -0.285749,0 -0.285749,-0.222249 0,-0.211666 0.285749,-0.211666 h 1.576911 q 0.285749,0 0.285749,0.211666 0,0.222249 -0.285749,0.222249 z"
         style="stroke-width:0.264583"
         id="path938" />
      <path
         d="m 19.982345,68.924337 -2.11666,-5.524483 h -0.328082 q -0.285749,0 -0.285749,-0.222249 0,-0.211666 0.285749,-0.211666 h 1.598078 q 0.285749,0 0.285749,0.211666 0,0.222249 -0.285749,0.222249 h -0.814914 l 1.968494,5.090568 h 0.03175 l 2.042577,-5.090568 H 21.53809 q -0.285749,0 -0.285749,-0.222249 0,-0.211666 0.285749,-0.211666 h 1.587495 q 0.285749,0 0.285749,0.211666 0,0.222249 -0.285749,0.222249 h -0.328082 l -2.21191,5.524483 z"
         style="stroke-width:0.264583"
         id="path940" />
      <path
         d="m 24.797731,68.924337 -0.634998,-5.524483 h -0.15875 q -0.285749,0 -0.285749,-0.222249 0,-0.211666 0.285749,-0.211666 h 1.576912 q 0.296332,0 0.296332,0.211666 0,0.222249 -0.296332,0.222249 h -0.984247 l 0.592665,5.037651 1.185329,-4.148653 h 0.656165 l 1.153579,4.148653 0.603248,-5.037651 h -1.015996 q -0.285749,0 -0.285749,-0.222249 0,-0.211666 0.285749,-0.211666 h 1.587495 q 0.285749,0 0.285749,0.211666 0,0.222249 -0.285749,0.222249 h -0.15875 l -0.656164,5.524483 h -0.677332 l -1.185329,-4.23332 -1.21708,4.23332 z"
         style="stroke-width:0.264583"
         id="path942" />
      <path
         d="m 33.296104,65.876347 2.02141,2.614075 h 0.179916 q 0.285749,0 0.285749,0.211666 0,0.222249 -0.285749,0.222249 h -1.396996 q -0.285749,0 -0.285749,-0.222249 0,-0.211666 0.285749,-0.211666 h 0.656165 l -1.746245,-2.264827 -1.735661,2.264827 h 0.677331 q 0.28575,0 0.28575,0.211666 0,0.222249 -0.28575,0.222249 h -1.386412 q -0.285749,0 -0.285749,-0.222249 0,-0.211666 0.285749,-0.211666 h 0.179916 l 1.989661,-2.614075 -1.894411,-2.476493 h -0.158749 q -0.28575,0 -0.28575,-0.222249 0,-0.211666 0.28575,-0.211666 h 1.164162 q 0.28575,0 0.28575,0.211666 0,0.222249 -0.28575,0.222249 H 31.39111 l 1.640411,2.127244 1.619245,-2.127244 h -0.476249 q -0.285749,0 -0.285749,-0.222249 0,-0.211666 0.285749,-0.211666 h 1.174747 q 0.285749,0 0.285749,0.211666 0,0.222249 -0.285749,0.222249 h -0.15875 z"
         style="stroke-width:0.264583"
         id="path944" />
      <path
         d="m 39.614318,66.236179 v 2.254243 h 1.111246 q 0.285749,0 0.285749,0.211666 0,0.222249 -0.285749,0.222249 h -2.656408 q -0.285749,0 -0.285749,-0.222249 0,-0.211666 0.285749,-0.211666 h 1.111246 v -2.254243 l -1.89441,-2.836325 h -0.253999 q -0.285749,0 -0.285749,-0.222249 0,-0.211666 0.285749,-0.211666 h 1.174746 q 0.285749,0 0.285749,0.211666 0,0.222249 -0.285749,0.222249 h -0.402165 l 1.608661,2.402409 1.576912,-2.402409 h -0.423332 q -0.296333,0 -0.296333,-0.222249 0,-0.211666 0.296333,-0.211666 h 1.164163 q 0.285749,0 0.285749,0.211666 0,0.222249 -0.285749,0.222249 h -0.253999 z"
         style="stroke-width:0.264583"
         id="path946" />
      <path
         d="m 47.816359,68.924337 h -4.16982 v -0.624415 l 3.471323,-4.868318 v -0.03175 h -2.846908 v 1.24883 q 0,0.296332 -0.211666,0.296332 -0.222249,0 -0.222249,-0.296332 v -1.682745 h 3.693571 v 0.613832 l -3.471322,4.868317 v 0.04233 h 3.323156 v -1.492246 q 0,-0.285749 0.211666,-0.285749 0.222249,0 0.222249,0.285749 z"
         style="stroke-width:0.264583"
         id="path948" />
      <path
         d="m 52.303661,62.965939 v 6.836812 h 1.02658 q 0.285749,0 0.285749,0.211666 0,0.222249 -0.285749,0.222249 h -1.460495 v -7.704642 h 1.460495 q 0.285749,0 0.285749,0.211666 0,0.222249 -0.285749,0.222249 z"
         style="stroke-width:0.264583"
         id="path950" />
      <path
         d="m 56.896797,62.045192 3.460739,7.365977 q 0.05292,0.09525 0.05292,0.169332 0,0.07408 -0.0635,0.137583 -0.0635,0.0635 -0.148166,0.0635 -0.137583,0 -0.232833,-0.190499 l -3.460739,-7.365977 q -0.05292,-0.105833 -0.05292,-0.169333 0,-0.07408 0.0635,-0.137582 0.07408,-0.0635 0.15875,-0.0635 0.127,0 0.222249,0.190499 z"
         style="stroke-width:0.264583"
         id="path952" />
      <path
         d="M 64.559091,69.802751 V 62.965939 H 63.53251 q -0.285749,0 -0.285749,-0.211666 0,-0.222249 0.285749,-0.222249 h 1.460496 v 7.704642 H 63.53251 q -0.285749,0 -0.285749,-0.211666 0,-0.222249 0.285749,-0.222249 z"
         style="stroke-width:0.264583"
         id="path954" />
      <path
         d="m 71.131304,62.415608 1.883827,2.360075 q 0.09525,0.105833 0.09525,0.1905 0,0.08467 -0.0635,0.148166 -0.0635,0.0635 -0.148166,0.0635 -0.105833,0 -0.211666,-0.137583 l -1.555745,-1.957911 -1.555745,1.957911 q -0.09525,0.137583 -0.211666,0.137583 -0.08467,0 -0.148166,-0.0635 -0.0635,-0.0635 -0.0635,-0.148166 0,-0.08467 0.09525,-0.1905 z"
         style="stroke-width:0.264583"
         id="path956" />
      <path
         d="m 80.656258,69.718084 v 0.529165 h -6.34998 v -0.529165 z"
         style="stroke-width:0.264583"
         id="path958" />
      <path
         d="m 82.709403,62.256858 1.206496,1.05833 q 0.126999,0.116416 0.126999,0.201083 0,0.09525 -0.0635,0.158749 -0.0635,0.0635 -0.158749,0.0635 -0.07408,0 -0.190499,-0.09525 l -1.206497,-1.05833 q -0.126999,-0.116416 -0.126999,-0.211666 0,-0.08467 0.0635,-0.148166 0.0635,-0.0635 0.148166,-0.0635 0.07408,0 0.201083,0.09525 z"
         style="stroke-width:0.264583"
         id="path960" />
      <path
         d="m 88.329115,64.92385 q 0,-0.232833 0.719665,-0.391582 0.719664,-0.169333 1.121829,-0.169333 0.740831,0 1.21708,0.370415 0.486832,0.370416 0.486832,0.931331 v 2.825741 h 0.571498 q 0.285749,0 0.285749,0.211666 0,0.222249 -0.285749,0.222249 h -1.005414 v -0.709081 q -0.941913,0.878414 -2.02141,0.878414 -0.740831,0 -1.195913,-0.370416 -0.455082,-0.380999 -0.455082,-0.984247 0,-0.687914 0.613832,-1.111246 0.624414,-0.433915 1.619244,-0.433915 0.624415,0 1.439329,0.222249 v -0.751414 q 0,-0.391583 -0.359832,-0.624415 -0.359832,-0.243416 -0.941914,-0.243416 -0.486831,0 -1.005413,0.169333 -0.518582,0.169333 -0.603248,0.169333 -0.08467,0 -0.148166,-0.0635 -0.05292,-0.0635 -0.05292,-0.148166 z m 3.11149,2.815157 V 66.78651 q -0.634998,-0.158749 -1.354662,-0.158749 -0.836081,0 -1.365246,0.317499 -0.518581,0.306916 -0.518581,0.804331 0,0.412748 0.328082,0.666747 0.328082,0.243416 0.878414,0.243416 0.560915,0 1.02658,-0.211666 0.476248,-0.211666 1.005413,-0.709081 z"
         style="stroke-width:0.264583"
         id="path962" />
      <path
         d="m 94.880166,62.532024 v 2.920991 q 0.772581,-1.09008 1.904994,-1.09008 0.96308,0 1.629828,0.677331 0.666748,0.677331 0.666748,1.661578 0,0.99483 -0.677331,1.693328 -0.666748,0.698498 -1.619245,0.698498 -1.164163,0 -1.904994,-1.100664 v 0.931331 h -1.005414 q -0.285749,0 -0.285749,-0.222249 0,-0.211666 0.285749,-0.211666 h 0.571499 v -5.524483 h -0.571499 q -0.285749,0 -0.285749,-0.222249 0,-0.211666 0.285749,-0.211666 z m 1.883827,2.264826 q -0.783164,0 -1.333496,0.560915 -0.550331,0.560915 -0.550331,1.365246 0,0.80433 0.550331,1.375828 0.550332,0.560915 1.333496,0.560915 0.772581,0 1.322913,-0.560915 0.560914,-0.560914 0.560914,-1.344079 0,-0.825497 -0.550331,-1.386412 -0.539748,-0.571498 -1.333496,-0.571498 z"
         style="stroke-width:0.264583"
         id="path964" />
      <path
         d="m 105.3682,67.993006 q 0,0.09525 -0.17992,0.275166 -0.17992,0.169333 -0.47625,0.359832 -0.28575,0.1905 -0.762,0.328083 -0.47624,0.137583 -0.97366,0.137583 -1.03716,0 -1.71449,-0.656165 -0.66675,-0.656164 -0.66675,-1.672161 0,-1.047747 0.68791,-1.725078 0.68792,-0.677331 1.74625,-0.677331 0.98424,0 1.65099,0.582081 v -0.137583 q 0,-0.296332 0.22225,-0.296332 0.21167,0 0.21167,0.296332 v 0.963081 q 0,0.285749 -0.21167,0.285749 -0.1905,0 -0.22225,-0.254 -0.0318,-0.423332 -0.52916,-0.709081 -0.48683,-0.296332 -1.15358,-0.296332 -0.87842,0 -1.42875,0.550332 -0.53975,0.539748 -0.53975,1.407578 0,0.836081 0.55034,1.375829 0.55033,0.529165 1.41816,0.529165 1.15358,0 1.97907,-0.761997 0.10584,-0.105833 0.1905,-0.105833 0.0847,0 0.13759,0.0635 0.0635,0.05292 0.0635,0.137582 z"
         style="stroke-width:0.264583"
         id="path966" />
      <path
         d="m 111.36892,62.532024 v 5.958398 h 0.57149 q 0.28575,0 0.28575,0.211666 0,0.222249 -0.28575,0.222249 H 110.935 v -0.941914 q -0.75141,1.111247 -1.92616,1.111247 -0.94191,0 -1.61925,-0.698498 -0.66674,-0.698498 -0.66674,-1.672161 0,-0.973664 0.66674,-1.661579 0.67734,-0.698497 1.61925,-0.698497 1.16416,0 1.92616,1.100663 v -2.497659 h -0.5715 q -0.28575,0 -0.28575,-0.222249 0,-0.211666 0.28575,-0.211666 z m -2.32833,2.264826 q -0.78316,0 -1.3335,0.560915 -0.55033,0.560915 -0.55033,1.365246 0,0.814914 0.55033,1.375828 0.55034,0.560915 1.34408,0.560915 0.78317,0 1.3335,-0.560915 0.55033,-0.560914 0.55033,-1.354662 0,-0.825497 -0.55033,-1.386412 -0.53975,-0.560915 -1.34408,-0.560915 z"
         style="stroke-width:0.264583"
         id="path968" />
      <path
         d="m 117.90938,66.81826 h -4.40266 q 0.11642,0.836081 0.6985,1.344079 0.58208,0.497415 1.43933,0.497415 0.49741,0 1.016,-0.158749 0.51858,-0.15875 0.83608,-0.412749 0.10583,-0.07408 0.16933,-0.07408 0.0847,0 0.13758,0.0635 0.0635,0.0635 0.0635,0.148166 0,0.275166 -0.762,0.571498 -0.75141,0.296333 -1.47107,0.296333 -1.06892,0 -1.82033,-0.719665 -0.74083,-0.719664 -0.74083,-1.746244 0,-0.96308 0.69849,-1.608662 0.6985,-0.656164 1.7145,-0.656164 1.06891,0 1.74624,0.677331 0.67734,0.666748 0.67734,1.777994 z m -4.40266,-0.433915 h 3.95816 q -0.127,-0.719664 -0.66675,-1.15358 -0.53975,-0.433915 -1.31233,-0.433915 -0.77258,0 -1.30175,0.433915 -0.52916,0.423332 -0.67733,1.15358 z"
         style="stroke-width:0.264583"
         id="path970" />
      <path
         d="m 124.25934,63.092939 q -0.0212,0 -0.26459,-0.03175 -0.24341,-0.03175 -0.59266,-0.0635 -0.33867,-0.03175 -0.60325,-0.03175 -0.51858,0 -0.84666,0.253999 -0.32809,0.243416 -0.32809,0.645582 v 0.645581 h 2.00025 q 0.28575,0 0.28575,0.211666 0,0.222249 -0.28575,0.222249 h -2.00025 v 3.545406 h 1.88383 q 0.28575,0 0.28575,0.211666 0,0.222249 -0.28575,0.222249 h -3.3549 q -0.28575,0 -0.28575,-0.222249 0,-0.211666 0.28575,-0.211666 h 1.03716 v -3.545406 h -0.93133 q -0.28575,0 -0.28575,-0.222249 0,-0.211666 0.28575,-0.211666 h 0.93133 V 63.86552 q 0,-0.582082 0.45508,-0.952497 0.46567,-0.380999 1.17475,-0.380999 0.74083,0 1.47108,0.137583 0.19049,0.05292 0.19049,0.211666 0,0.211666 -0.22224,0.211666 z"
         style="stroke-width:0.264583"
         id="path972" />
      <path
         d="m 129.76264,65.389515 v -0.878414 h 1.00541 q 0.28575,0 0.28575,0.211666 0,0.222249 -0.28575,0.222249 h -0.5715 v 4.275653 q 0,0.677331 -0.50799,1.174747 -0.508,0.497415 -1.23825,0.497415 h -1.2065 q -0.28575,0 -0.28575,-0.22225 0,-0.211666 0.28575,-0.211666 h 1.22767 q 0.53975,0 0.91016,-0.380998 0.381,-0.380999 0.381,-0.920748 v -1.365245 q -0.6985,1.02658 -1.80974,1.02658 -0.89959,0 -1.54517,-0.656165 -0.63499,-0.656164 -0.63499,-1.576911 0,-0.920747 0.63499,-1.566329 0.64558,-0.656164 1.54517,-0.656164 1.12182,0 1.80974,1.02658 z m -1.77799,-0.592665 q -0.74084,0 -1.25942,0.518582 -0.51858,0.518581 -0.51858,1.269996 0,0.751414 0.51858,1.280579 0.51858,0.518582 1.25942,0.518582 0.74083,0 1.25941,-0.518582 0.51858,-0.518582 0.51858,-1.259413 0,-0.772581 -0.51858,-1.291162 -0.508,-0.518582 -1.25941,-0.518582 z"
         style="stroke-width:0.264583"
         id="path974" />
      <path
         d="m 136.08085,65.876347 q 0,-0.476249 -0.35983,-0.772581 -0.35983,-0.306916 -0.94192,-0.306916 -0.44449,0 -0.74083,0.179916 -0.28575,0.169333 -0.71966,0.677331 l -0.11642,0.137583 v 2.698742 h 0.47625 q 0.29633,0 0.29633,0.211666 0,0.222249 -0.29633,0.222249 h -1.39699 q -0.28575,0 -0.28575,-0.222249 0,-0.211666 0.28575,-0.211666 h 0.48683 v -5.524483 h -0.5715 q -0.28575,0 -0.28575,-0.222249 0,-0.211666 0.28575,-0.211666 h 1.00541 v 2.719908 q 0.40217,-0.486832 0.77258,-0.687915 0.37042,-0.201082 0.85725,-0.201082 0.74083,0 1.2065,0.423332 0.47625,0.412748 0.47625,1.05833 v 2.645825 h 0.47624 q 0.29634,0 0.29634,0.211666 0,0.222249 -0.29634,0.222249 h -1.38641 q -0.28575,0 -0.28575,-0.222249 0,-0.211666 0.28575,-0.211666 h 0.47625 z"
         style="stroke-width:0.264583"
         id="path976" />
      <path
         d="m 141.19257,64.511101 v 3.979321 h 1.69333 q 0.29633,0 0.29633,0.211666 0,0.222249 -0.29633,0.222249 h -3.82057 q -0.28575,0 -0.28575,-0.222249 0,-0.211666 0.28575,-0.211666 h 1.69333 v -3.545406 h -1.24883 q -0.28575,0 -0.28575,-0.222249 0,-0.211666 0.28575,-0.211666 z m -0.0212,-2.190743 v 1.100663 h -0.62442 v -1.100663 z"
         style="stroke-width:0.264583"
         id="path978" />
      <path
         d="m 14.902378,78.174138 h -2.550576 q -0.285749,0 -0.285749,-0.222249 0,-0.211666 0.285749,-0.211666 h 2.984491 v 4.709568 q 0,0.740831 -0.465665,1.206497 -0.455082,0.465665 -1.174747,0.465665 h -1.365245 q -0.285749,0 -0.285749,-0.22225 0,-0.211666 0.285749,-0.211666 h 1.354662 q 0.529165,0 0.867831,-0.349248 0.349249,-0.349249 0.349249,-0.888998 z m -0.03175,-2.624658 v 1.100663 H 14.246213 V 75.54948 Z"
         style="stroke-width:0.264583"
         id="path980" />
      <path
         d="m 19.114515,80.248465 v 1.904994 h -1.005414 q -0.285749,0 -0.285749,-0.222249 0,-0.211666 0.285749,-0.211666 h 0.571498 v -5.524483 h -0.571498 q -0.285749,0 -0.285749,-0.222249 0,-0.211666 0.285749,-0.211666 h 1.005414 v 3.968737 l 1.830911,-1.555745 h -0.232833 q -0.285749,0 -0.285749,-0.222249 0,-0.211666 0.285749,-0.211666 h 1.375829 q 0.285749,0 0.285749,0.211666 0,0.222249 -0.285749,0.222249 h -0.497415 l -1.661578,1.386413 2.190743,2.158993 h 0.476248 q 0.285749,0 0.285749,0.211666 0,0.222249 -0.285749,0.222249 h -1.386412 q -0.285749,0 -0.285749,-0.222249 0,-0.211666 0.285749,-0.211666 h 0.296332 l -1.904993,-1.883828 z"
         style="stroke-width:0.264583"
         id="path982" />
      <path
         d="m 26.893224,75.761146 v 5.958398 h 1.693328 q 0.296332,0 0.296332,0.211666 0,0.222249 -0.296332,0.222249 h -3.820571 q -0.285749,0 -0.285749,-0.222249 0,-0.211666 0.285749,-0.211666 h 1.693328 v -5.524483 h -1.238247 q -0.285749,0 -0.285749,-0.222249 0,-0.211666 0.285749,-0.211666 z"
         style="stroke-width:0.264583"
         id="path984" />
      <path
         d="m 31.041861,77.740223 v 0.550332 q 0.264582,-0.380999 0.518581,-0.539749 0.254,-0.158749 0.592665,-0.158749 0.677331,0 1.02658,0.751414 0.582082,-0.751414 1.195913,-0.751414 0.455082,0 0.783164,0.338665 0.328083,0.338666 0.328083,0.804331 v 2.984491 h 0.359832 q 0.285749,0 0.285749,0.211666 0,0.222249 -0.285749,0.222249 h -0.783164 v -3.376073 q 0,-0.296332 -0.211666,-0.518581 -0.211666,-0.232833 -0.486832,-0.232833 -0.529165,0 -1.100663,0.867831 v 2.825741 h 0.359832 q 0.285749,0 0.285749,0.211666 0,0.222249 -0.285749,0.222249 h -0.783164 v -3.344323 q 0,-0.306915 -0.211666,-0.539748 -0.201083,-0.243416 -0.476249,-0.243416 -0.529165,0 -1.111246,0.867831 v 2.825741 h 0.359832 q 0.285749,0 0.285749,0.211666 0,0.222249 -0.285749,0.222249 h -1.15358 q -0.275166,0 -0.275166,-0.222249 0,-0.211666 0.28575,-0.211666 h 0.359832 v -3.545406 h -0.359832 q -0.28575,0 -0.28575,-0.222249 0,-0.211666 0.28575,-0.211666 z"
         style="stroke-width:0.264583"
         id="path986" />
      <path
         d="m 39.582568,78.025972 q -0.1905,0 -0.370416,0.04233 -0.169332,0.03175 -0.328082,0.116417 -0.148166,0.07408 -0.253999,0.148166 -0.105833,0.0635 -0.232833,0.190499 -0.116416,0.127 -0.169332,0.1905 -0.04233,0.05292 -0.148167,0.190499 -0.09525,0.127 -0.105833,0.137583 v 2.677575 h 0.476249 q 0.285749,0 0.285749,0.211666 0,0.222249 -0.285749,0.222249 h -1.386412 q -0.296333,0 -0.296333,-0.222249 0,-0.211666 0.296333,-0.211666 h 0.476248 v -3.545406 h -0.359832 q -0.285749,0 -0.285749,-0.222249 0,-0.211666 0.285749,-0.211666 h 0.793747 v 0.730248 q 0.455082,-0.507999 0.804331,-0.687915 0.349249,-0.190499 0.846664,-0.190499 0.709081,0 1.18533,0.412749 0.476248,0.412748 0.476248,1.02658 v 2.688158 h 0.359832 q 0.285749,0 0.285749,0.211666 0,0.222249 -0.285749,0.222249 h -1.153579 q -0.285749,0 -0.285749,-0.222249 0,-0.211666 0.285749,-0.211666 h 0.359832 v -2.614075 q 0,-0.455082 -0.349249,-0.761998 -0.338666,-0.317499 -0.920747,-0.317499 z"
         style="stroke-width:0.264583"
         id="path988" />
      <path
         d="m 45.731449,77.592057 q 1.015997,0 1.714495,0.698498 0.698498,0.687914 0.698498,1.693328 0,0.973663 -0.709081,1.661578 -0.709082,0.677331 -1.703912,0.677331 -1.005413,0 -1.714494,-0.687915 -0.698498,-0.687914 -0.698498,-1.682744 0,-0.973664 0.698498,-1.661578 0.709081,-0.698498 1.714494,-0.698498 z m 0,0.433915 q -0.825497,0 -1.407579,0.560915 -0.571498,0.560915 -0.571498,1.365246 0,0.80433 0.571498,1.375829 0.582082,0.560915 1.407579,0.560915 0.814914,0 1.396996,-0.560915 0.582081,-0.560915 0.582081,-1.344079 0,-0.836081 -0.571498,-1.396996 -0.571498,-0.560915 -1.407579,-0.560915 z"
         style="stroke-width:0.264583"
         id="path990" />
      <path
         d="m 50.430417,77.740223 v 0.867831 q 0.423332,-0.550332 0.857247,-0.783165 0.433915,-0.232832 1.037163,-0.232832 0.984247,0 1.640412,0.645581 0.666748,0.634998 0.666748,1.576912 0,0.941913 -0.666748,1.587495 -0.666748,0.645581 -1.640412,0.645581 -1.185329,0 -1.89441,-1.015997 v 2.656408 h 1.037163 q 0.285749,0 0.285749,0.211666 0,0.22225 -0.285749,0.22225 h -2.042577 q -0.285749,0 -0.285749,-0.22225 0,-0.211666 0.285749,-0.211666 h 0.571499 v -5.513899 h -0.571499 q -0.285749,0 -0.285749,-0.222249 0,-0.211666 0.285749,-0.211666 z m 1.883827,0.285749 q -0.783164,0 -1.333496,0.529165 -0.550331,0.518582 -0.550331,1.259413 0,0.751414 0.550331,1.280579 0.550332,0.518582 1.333496,0.518582 0.783164,0 1.333496,-0.518582 0.550331,-0.518582 0.550331,-1.259413 0,-0.77258 -0.539748,-1.291162 -0.539748,-0.518582 -1.344079,-0.518582 z"
         style="stroke-width:0.264583"
         id="path992" />
      <path
         d="M 60.135287,78.608054 V 77.740223 H 61.1407 q 0.285749,0 0.285749,0.211666 0,0.222249 -0.285749,0.222249 h -0.571498 v 5.513899 H 61.1407 q 0.285749,0 0.285749,0.211666 0,0.22225 -0.285749,0.22225 h -2.042576 q -0.28575,0 -0.28575,-0.22225 0,-0.211666 0.28575,-0.211666 h 1.037163 v -2.656408 q -0.709081,1.015997 -1.904994,1.015997 -0.973664,0 -1.640411,-0.645581 -0.666748,-0.645582 -0.666748,-1.587495 0,-0.941914 0.666748,-1.576912 0.666747,-0.645581 1.650994,-0.645581 1.174747,0 1.894411,1.015997 z m -1.894411,-0.582082 q -0.793747,0 -1.344079,0.518582 -0.539748,0.518582 -0.539748,1.269996 0,0.751414 0.539748,1.280579 0.550332,0.518582 1.344079,0.518582 0.783164,0 1.333496,-0.518582 0.560915,-0.518582 0.560915,-1.259413 0,-0.77258 -0.550332,-1.291162 -0.539748,-0.518582 -1.344079,-0.518582 z"
         style="stroke-width:0.264583"
         id="path994" />
      <path
         d="m 67.109666,78.512804 q -0.05292,0 -0.328083,-0.222249 -0.275165,-0.22225 -0.539748,-0.22225 -0.359832,0 -0.751414,0.254 -0.380999,0.253999 -1.259413,1.05833 v 2.338909 h 1.894411 q 0.285749,0 0.285749,0.222249 0,0.211666 -0.285749,0.211666 h -3.344323 q -0.285749,0 -0.285749,-0.222249 0,-0.211666 0.285749,-0.211666 h 1.015997 v -3.545406 h -0.793748 q -0.285749,0 -0.285749,-0.222249 0,-0.211666 0.285749,-0.211666 h 1.227663 v 1.079497 q 0.730248,-0.666748 1.18533,-0.920747 0.455082,-0.264583 0.857247,-0.264583 0.423332,0 0.740831,0.253999 0.317499,0.253999 0.317499,0.402166 0,0.09525 -0.0635,0.158749 -0.0635,0.0635 -0.158749,0.0635 z"
         style="stroke-width:0.264583"
         id="path996" />
      <path
         d="m 72.739966,80.915213 q 0,-0.391582 -0.359833,-0.603248 -0.359832,-0.211666 -0.86783,-0.285749 -0.507999,-0.07408 -1.015997,-0.15875 -0.507998,-0.08467 -0.867831,-0.349249 -0.359832,-0.264582 -0.359832,-0.730247 0,-0.518582 0.507999,-0.857248 0.518581,-0.338665 1.301745,-0.338665 0.899581,0 1.449913,0.486832 v -0.04233 q 0,-0.296332 0.222249,-0.296332 0.211666,0 0.211666,0.296332 v 0.730248 q 0,0.285749 -0.211666,0.285749 -0.1905,0 -0.222249,-0.243416 -0.04233,-0.359832 -0.423332,-0.571498 -0.380999,-0.211666 -0.984247,-0.211666 -0.592665,0 -0.984247,0.232833 -0.391582,0.222249 -0.391582,0.560915 0,0.317499 0.359832,0.486831 0.359832,0.169333 0.86783,0.243416 0.507999,0.0635 1.015997,0.169333 0.507999,0.09525 0.867831,0.402165 0.359832,0.296333 0.359832,0.804331 0,0.603248 -0.592665,1.005414 -0.582081,0.391582 -1.481662,0.391582 -1.015996,0 -1.661578,-0.571498 v 0.116416 q 0,0.285749 -0.211666,0.285749 -0.222249,0 -0.222249,-0.285749 v -0.878414 q 0,-0.285749 0.222249,-0.285749 0.211666,0 0.211666,0.232833 v 0.07408 q 0,0.359832 0.476249,0.624414 0.476248,0.254 1.153579,0.254 0.698498,0 1.164163,-0.275166 0.465666,-0.275166 0.465666,-0.698498 z"
         style="stroke-width:0.264583"
         id="path998" />
      <path
         d="m 76.274772,77.740223 h 2.328326 q 0.285749,0 0.285749,0.211666 0,0.222249 -0.285749,0.222249 h -2.328326 v 2.825741 q 0,0.402166 0.317499,0.645582 0.317499,0.243416 0.867831,0.243416 0.444498,0 0.941913,-0.116417 0.507999,-0.126999 0.814914,-0.306915 0.105833,-0.0635 0.169333,-0.0635 0.07408,0 0.137583,0.0635 0.0635,0.0635 0.0635,0.148166 0,0.232832 -0.719665,0.476248 -0.709081,0.232833 -1.386412,0.232833 -0.751414,0 -1.195913,-0.349249 -0.444498,-0.359832 -0.444498,-0.952497 v -2.846908 h -0.783164 q -0.296333,0 -0.296333,-0.222249 0,-0.211666 0.296333,-0.211666 h 0.783164 V 76.48081 q 0,-0.285749 0.222249,-0.285749 0.211666,0 0.211666,0.285749 z"
         style="stroke-width:0.264583"
         id="path1000" />
      <path
         d="m 85.302311,82.153459 v -0.698498 q -0.888997,0.867831 -1.926161,0.867831 -0.634998,0 -1.02658,-0.380999 -0.380998,-0.380999 -0.380998,-1.005413 v -2.762242 h -0.571499 q -0.285749,0 -0.285749,-0.222249 0,-0.211666 0.285749,-0.211666 h 1.005414 v 3.196157 q 0,0.402165 0.275166,0.677331 0.285749,0.275166 0.687914,0.275166 1.05833,0 1.936744,-0.952497 v -2.762242 h -0.783164 q -0.296333,0 -0.296333,-0.222249 0,-0.211666 0.296333,-0.211666 h 1.217079 v 3.979321 h 0.359832 q 0.285749,0 0.285749,0.211666 0,0.222249 -0.285749,0.222249 z"
         style="stroke-width:0.264583"
         id="path1002" />
      <path
         d="M 90.562191,82.153459 H 89.82136 l -1.777994,-3.979321 h -0.433915 q -0.285749,0 -0.285749,-0.222249 0,-0.211666 0.285749,-0.211666 h 1.598078 q 0.296332,0 0.296332,0.211666 0,0.222249 -0.296332,0.222249 h -0.687914 l 1.587494,3.545406 h 0.201083 l 1.555745,-3.545406 h -0.719664 q -0.285749,0 -0.285749,-0.222249 0,-0.211666 0.285749,-0.211666 h 1.608661 q 0.285749,0 0.285749,0.211666 0,0.222249 -0.285749,0.222249 h -0.433915 z"
         style="stroke-width:0.264583"
         id="path1004" />
      <path
         d="m 98.023406,82.153459 h -0.529165 l -0.96308,-2.741075 -0.941914,2.741075 h -0.539748 l -0.888998,-3.979321 h -0.201082 q -0.285749,0 -0.285749,-0.222249 0,-0.211666 0.285749,-0.211666 h 1.174746 q 0.285749,0 0.285749,0.211666 0,0.222249 -0.285749,0.222249 H 94.57325 l 0.761998,3.386656 0.910163,-2.698741 h 0.539749 l 0.941913,2.698741 0.730248,-3.386656 h -0.529165 q -0.285749,0 -0.285749,-0.222249 0,-0.211666 0.285749,-0.211666 h 1.174746 q 0.285749,0 0.285749,0.211666 0,0.222249 -0.285749,0.222249 H 98.90182 Z"
         style="stroke-width:0.264583"
         id="path1006" />
      <path
         d="m 103.18804,79.835716 1.94732,1.883828 h 0.0952 q 0.28575,0 0.28575,0.211666 0,0.222249 -0.28575,0.222249 h -1.39699 q -0.28575,0 -0.28575,-0.222249 0,-0.211666 0.28575,-0.211666 h 0.68791 l -1.64041,-1.576912 -1.66158,1.576912 h 0.71967 q 0.28575,0 0.28575,0.211666 0,0.222249 -0.28575,0.222249 h -1.40758 q -0.28575,0 -0.28575,-0.222249 0,-0.211666 0.28575,-0.211666 h 0.0952 l 1.94733,-1.883828 -1.72508,-1.661578 h -0.0741 q -0.28574,0 -0.28574,-0.222249 0,-0.211666 0.28574,-0.211666 h 1.17475 q 0.28575,0 0.28575,0.211666 0,0.222249 -0.28575,0.222249 h -0.48683 l 1.41816,1.375829 1.44991,-1.375829 h -0.508 q -0.28574,0 -0.28574,-0.222249 0,-0.211666 0.28574,-0.211666 h 1.16417 q 0.28575,0 0.28575,0.211666 0,0.222249 -0.28575,0.222249 h -0.0741 z"
         style="stroke-width:0.264583"
         id="path1008" />
      <path
         d="m 109.04059,82.153459 -1.98966,-3.979321 h -0.16933 q -0.28575,0 -0.28575,-0.222249 0,-0.211666 0.28575,-0.211666 h 1.21708 q 0.28574,0 0.28574,0.211666 0,0.222249 -0.28574,0.222249 h -0.55034 l 1.73567,3.503073 1.70391,-3.503073 h -0.5715 q -0.28575,0 -0.28575,-0.222249 0,-0.211666 0.28575,-0.211666 h 1.16416 q 0.28575,0 0.28575,0.211666 0,0.222249 -0.28575,0.222249 h -0.14816 l -2.70933,5.513899 h 0.68791 q 0.28575,0 0.28575,0.211666 0,0.22225 -0.28575,0.22225 h -2.4659 q -0.28575,0 -0.28575,-0.22225 0,-0.211666 0.28575,-0.211666 h 1.34408 z"
         style="stroke-width:0.264583"
         id="path1010" />
      <path
         d="m 117.42254,77.740223 v 0.380999 l -3.20674,3.598322 h 2.93158 v -0.592665 q 0,-0.285749 0.22225,-0.285749 0.21166,0 0.21166,0.285749 v 1.02658 h -3.95815 V 81.77246 l 3.18557,-3.598322 h -2.65641 v 0.582082 q 0,0.285749 -0.21166,0.285749 -0.22225,0 -0.22225,-0.285749 v -1.015997 z"
         style="stroke-width:0.264583"
         id="path1012" />
      <path
         d="m 123.09517,83.254122 q 0,0.211666 -0.22225,0.211666 -0.55033,0 -0.84666,-0.317499 -0.29633,-0.306915 -0.29633,-0.846664 v -1.566328 q 0,-0.455082 -0.35984,-0.687915 -0.34924,-0.232832 -0.73024,-0.232832 -0.22225,0 -0.22225,-0.201083 0,-0.222249 0.22225,-0.222249 0.381,0 0.73024,-0.222249 0.35984,-0.232833 0.35984,-0.677332 v -1.555745 q 0,-0.550331 0.29633,-0.857247 0.29633,-0.317499 0.84666,-0.317499 0.0953,0 0.15875,0.0635 0.0635,0.05292 0.0635,0.148166 0,0.08467 -0.0741,0.148166 -0.0635,0.0635 -0.15875,0.0635 -0.26458,0 -0.48683,0.179916 -0.21167,0.169333 -0.21167,0.571498 v 1.555745 q 0,0.804331 -0.8255,1.12183 0.8255,0.253999 0.8255,1.12183 v 1.566328 q 0,0.391582 0.21167,0.560915 0.22225,0.179916 0.49741,0.179916 0.0953,0 0.15875,0.0635 0.0635,0.0635 0.0635,0.148166 z"
         style="stroke-width:0.264583"
         id="path1014" />
      <path
         d="m 128.49264,76.046895 v 7.133144 q 0,0.285749 -0.21166,0.285749 -0.21167,0 -0.21167,-0.285749 v -7.133144 q 0,-0.285749 0.21167,-0.285749 0.21166,0 0.21166,0.285749 z"
         style="stroke-width:0.264583"
         id="path1016" />
      <path
         d="m 133.46677,83.254122 q 0,-0.04233 0.0106,-0.08467 0.0212,-0.03175 0.0529,-0.0635 0.0317,-0.03175 0.0741,-0.05292 0.0423,-0.01058 0.0847,-0.01058 0.27517,0 0.48684,-0.179916 0.22225,-0.169333 0.22225,-0.560915 v -1.566328 q 0,-0.867831 0.82549,-1.12183 -0.82549,-0.317499 -0.82549,-1.12183 v -1.555745 q 0,-0.275165 -0.127,-0.455082 -0.11642,-0.179916 -0.26459,-0.232832 -0.14816,-0.0635 -0.30691,-0.0635 -0.0952,0 -0.16934,-0.0635 -0.0635,-0.0635 -0.0635,-0.148166 0,-0.09525 0.0635,-0.148166 0.0635,-0.0635 0.15875,-0.0635 0.55034,0 0.84667,0.317499 0.29633,0.306916 0.29633,0.857247 v 1.555745 q 0,0.444499 0.34925,0.677332 0.35983,0.222249 0.74083,0.222249 0.22225,0 0.22225,0.222249 0,0.201083 -0.22225,0.201083 -0.381,0 -0.74083,0.232832 -0.34925,0.232833 -0.34925,0.687915 v 1.566328 q 0,0.539749 -0.29633,0.846664 -0.29633,0.317499 -0.84667,0.317499 -0.22225,0 -0.22225,-0.211666 z"
         style="stroke-width:0.264583"
         id="path1018" />
      <path
         d="m 141.89107,79.475884 q 0.24342,0 0.45508,-0.201082 0.22225,-0.211666 0.381,-0.412749 0.15875,-0.201083 0.24342,-0.201083 0.0847,0 0.14816,0.0635 0.0635,0.05292 0.0635,0.137583 0,0.201083 -0.43391,0.624415 -0.43392,0.423332 -0.8255,0.423332 -0.3175,0 -0.66675,-0.254 -0.34925,-0.253999 -0.66675,-0.497415 -0.30691,-0.253999 -0.53974,-0.253999 -0.20109,0 -0.37042,0.127 -0.16933,0.126999 -0.26458,0.285749 -0.0952,0.148166 -0.21167,0.275166 -0.11641,0.126999 -0.22225,0.126999 -0.0741,0 -0.13758,-0.0635 -0.0635,-0.0635 -0.0635,-0.137583 0,-0.179916 0.40216,-0.613831 0.40217,-0.433915 0.86784,-0.433915 0.31749,0 0.67733,0.253999 0.37041,0.253999 0.67733,0.507998 0.3175,0.243416 0.48683,0.243416 z"
         style="stroke-width:0.264583"
         id="path1020" />
    </g>
  </g>
</svg>
